<?xml version="1.0" encoding="UTF-8" standalone="no"?><svg xmlns="http://www.w3.org/2000/svg" xmlns:xlink="http://www.w3.org/1999/xlink" contentStyleType="text/css" height="1141px" preserveAspectRatio="none" style="width:888px;height:1141px;background:#FFFFFF;" version="1.1" viewBox="0 0 888 1141" width="888px" zoomAndPan="magnify"><defs/><g><!--class PSP--><g id="elem_PSP"><rect codeLine="2" fill="#F1F1F1" height="56.6211" id="PSP" rx="2.5" ry="2.5" style="stroke:#181818;stroke-width:0.5;" width="96" x="198.5" y="23.5"/><ellipse cx="213.5" cy="43.8105" fill="#ADD1B2" rx="11" ry="11" style="stroke:#181818;stroke-width:1.0;"/><path d="M215.9731,49.9536 Q215.3921,50.2524 214.7529,50.4019 Q214.1138,50.5513 213.4082,50.5513 Q210.9014,50.5513 209.5815,48.8994 Q208.2617,47.2476 208.2617,44.1265 Q208.2617,40.9971 209.5815,39.3452 Q210.9014,37.6934 213.4082,37.6934 Q214.1138,37.6934 214.7612,37.8428 Q215.4087,37.9922 215.9731,38.291 L215.9731,41.0137 Q215.3423,40.4326 214.7488,40.1628 Q214.1553,39.8931 213.5244,39.8931 Q212.1797,39.8931 211.4949,40.9597 Q210.8101,42.0264 210.8101,44.1265 Q210.8101,46.2183 211.4949,47.2849 Q212.1797,48.3516 213.5244,48.3516 Q214.1553,48.3516 214.7488,48.0818 Q215.3423,47.812 215.9731,47.231 Z " fill="#000000"/><text fill="#000000" font-family="sans-serif" font-size="12" font-style="italic" lengthAdjust="spacing" textLength="68" x="225.5" y="40.1016">«Controller»</text><text fill="#000000" font-family="sans-serif" font-size="14" lengthAdjust="spacing" textLength="24" x="247.5" y="56.168">PSP</text><line style="stroke:#181818;stroke-width:0.5;" x1="199.5" x2="293.5" y1="64.1211" y2="64.1211"/><line style="stroke:#181818;stroke-width:0.5;" x1="199.5" x2="293.5" y1="72.1211" y2="72.1211"/></g><!--class AV--><g id="elem_AV"><rect codeLine="4" fill="#F1F1F1" height="56.6211" id="AV" rx="2.5" ry="2.5" style="stroke:#181818;stroke-width:0.5;" width="109" x="402" y="439"/><ellipse cx="417" cy="459.3105" fill="#ADD1B2" rx="11" ry="11" style="stroke:#181818;stroke-width:1.0;"/><path d="M419.4731,465.4536 Q418.8921,465.7524 418.2529,465.9019 Q417.6138,466.0513 416.9082,466.0513 Q414.4014,466.0513 413.0815,464.3994 Q411.7617,462.7476 411.7617,459.6265 Q411.7617,456.4971 413.0815,454.8452 Q414.4014,453.1934 416.9082,453.1934 Q417.6138,453.1934 418.2612,453.3428 Q418.9087,453.4922 419.4731,453.791 L419.4731,456.5137 Q418.8423,455.9326 418.2488,455.6628 Q417.6553,455.3931 417.0244,455.3931 Q415.6797,455.3931 414.9949,456.4597 Q414.3101,457.5264 414.3101,459.6265 Q414.3101,461.7183 414.9949,462.7849 Q415.6797,463.8516 417.0244,463.8516 Q417.6553,463.8516 418.2488,463.5818 Q418.8423,463.312 419.4731,462.731 Z " fill="#000000"/><text fill="#000000" font-family="sans-serif" font-size="12" font-style="italic" lengthAdjust="spacing" textLength="81" x="429" y="455.6016">«DataSubject»</text><text fill="#000000" font-family="sans-serif" font-size="14" lengthAdjust="spacing" textLength="19" x="460" y="471.668">AV</text><line style="stroke:#181818;stroke-width:0.5;" x1="403" x2="510" y1="479.6211" y2="479.6211"/><line style="stroke:#181818;stroke-width:0.5;" x1="403" x2="510" y1="487.6211" y2="487.6211"/></g><!--class PLT--><g id="elem_PLT"><rect codeLine="6" fill="#F1F1F1" height="56.6211" id="PLT" rx="2.5" ry="2.5" style="stroke:#181818;stroke-width:0.5;" width="96" x="96.5" y="235.5"/><ellipse cx="111.5" cy="255.8105" fill="#ADD1B2" rx="11" ry="11" style="stroke:#181818;stroke-width:1.0;"/><path d="M113.9731,261.9536 Q113.3921,262.2524 112.7529,262.4019 Q112.1138,262.5513 111.4082,262.5513 Q108.9014,262.5513 107.5815,260.8994 Q106.2617,259.2476 106.2617,256.1265 Q106.2617,252.9971 107.5815,251.3452 Q108.9014,249.6934 111.4082,249.6934 Q112.1138,249.6934 112.7612,249.8428 Q113.4087,249.9922 113.9731,250.291 L113.9731,253.0137 Q113.3423,252.4326 112.7488,252.1628 Q112.1553,251.8931 111.5244,251.8931 Q110.1797,251.8931 109.4949,252.9597 Q108.8101,254.0264 108.8101,256.1265 Q108.8101,258.2183 109.4949,259.2849 Q110.1797,260.3516 111.5244,260.3516 Q112.1553,260.3516 112.7488,260.0818 Q113.3423,259.812 113.9731,259.231 Z " fill="#000000"/><text fill="#000000" font-family="sans-serif" font-size="12" font-style="italic" lengthAdjust="spacing" textLength="68" x="123.5" y="252.1016">«Processor»</text><text fill="#000000" font-family="sans-serif" font-size="14" lengthAdjust="spacing" textLength="24" x="145.5" y="268.168">PLT</text><line style="stroke:#181818;stroke-width:0.5;" x1="97.5" x2="191.5" y1="276.1211" y2="276.1211"/><line style="stroke:#181818;stroke-width:0.5;" x1="97.5" x2="191.5" y1="284.1211" y2="284.1211"/></g><!--class Recipient--><g id="elem_Recipient"><rect codeLine="8" fill="#FFFFFF" height="56.6211" id="Recipient" rx="2.5" ry="2.5" style="stroke:#A9A9A9;stroke-width:0.5;" width="113" x="300" y="235.5"/><ellipse cx="315" cy="255.8105" fill="#ADD1B2" rx="11" ry="11" style="stroke:#181818;stroke-width:1.0;"/><path d="M317.4731,261.9536 Q316.8921,262.2524 316.2529,262.4019 Q315.6138,262.5513 314.9082,262.5513 Q312.4014,262.5513 311.0815,260.8994 Q309.7617,259.2476 309.7617,256.1265 Q309.7617,252.9971 311.0815,251.3452 Q312.4014,249.6934 314.9082,249.6934 Q315.6138,249.6934 316.2612,249.8428 Q316.9087,249.9922 317.4731,250.291 L317.4731,253.0137 Q316.8423,252.4326 316.2488,252.1628 Q315.6553,251.8931 315.0244,251.8931 Q313.6797,251.8931 312.9949,252.9597 Q312.3101,254.0264 312.3101,256.1265 Q312.3101,258.2183 312.9949,259.2849 Q313.6797,260.3516 315.0244,260.3516 Q315.6553,260.3516 316.2488,260.0818 Q316.8423,259.812 317.4731,259.231 Z " fill="#000000"/><text fill="#000000" font-family="sans-serif" font-size="12" font-style="italic" lengthAdjust="spacing" textLength="85" x="327" y="252.1016">«NotRequired»</text><text fill="#D3D3D3" font-family="sans-serif" font-size="14" lengthAdjust="spacing" textLength="63" x="338" y="268.168">Recipient</text><line style="stroke:#A9A9A9;stroke-width:0.5;" x1="301" x2="412" y1="276.1211" y2="276.1211"/><line style="stroke:#A9A9A9;stroke-width:0.5;" x1="301" x2="412" y1="284.1211" y2="284.1211"/></g><!--class ThirdParty--><g id="elem_ThirdParty"><rect codeLine="10" fill="#FFFFFF" height="56.6211" id="ThirdParty" rx="2.5" ry="2.5" style="stroke:#A9A9A9;stroke-width:0.5;" width="113" x="448" y="235.5"/><ellipse cx="463" cy="255.8105" fill="#ADD1B2" rx="11" ry="11" style="stroke:#181818;stroke-width:1.0;"/><path d="M465.4731,261.9536 Q464.8921,262.2524 464.2529,262.4019 Q463.6138,262.5513 462.9082,262.5513 Q460.4014,262.5513 459.0815,260.8994 Q457.7617,259.2476 457.7617,256.1265 Q457.7617,252.9971 459.0815,251.3452 Q460.4014,249.6934 462.9082,249.6934 Q463.6138,249.6934 464.2612,249.8428 Q464.9087,249.9922 465.4731,250.291 L465.4731,253.0137 Q464.8423,252.4326 464.2488,252.1628 Q463.6553,251.8931 463.0244,251.8931 Q461.6797,251.8931 460.9949,252.9597 Q460.3101,254.0264 460.3101,256.1265 Q460.3101,258.2183 460.9949,259.2849 Q461.6797,260.3516 463.0244,260.3516 Q463.6553,260.3516 464.2488,260.0818 Q464.8423,259.812 465.4731,259.231 Z " fill="#000000"/><text fill="#000000" font-family="sans-serif" font-size="12" font-style="italic" lengthAdjust="spacing" textLength="85" x="475" y="252.1016">«NotRequired»</text><text fill="#D3D3D3" font-family="sans-serif" font-size="14" lengthAdjust="spacing" textLength="71" x="482" y="268.168">ThirdParty</text><line style="stroke:#A9A9A9;stroke-width:0.5;" x1="449" x2="560" y1="276.1211" y2="276.1211"/><line style="stroke:#A9A9A9;stroke-width:0.5;" x1="449" x2="560" y1="284.1211" y2="284.1211"/></g><!--class location--><g id="elem_location"><rect codeLine="12" fill="#F1F1F1" height="73.1094" id="location" rx="2.5" ry="2.5" style="stroke:#181818;stroke-width:0.5;" width="131" x="362" y="639"/><ellipse cx="383.75" cy="659.3105" fill="#ADD1B2" rx="11" ry="11" style="stroke:#181818;stroke-width:1.0;"/><path d="M386.2231,665.4536 Q385.6421,665.7524 385.0029,665.9019 Q384.3638,666.0513 383.6582,666.0513 Q381.1514,666.0513 379.8315,664.3994 Q378.5117,662.7476 378.5117,659.6265 Q378.5117,656.4971 379.8315,654.8452 Q381.1514,653.1934 383.6582,653.1934 Q384.3638,653.1934 385.0112,653.3428 Q385.6587,653.4922 386.2231,653.791 L386.2231,656.5137 Q385.5923,655.9326 384.9988,655.6628 Q384.4053,655.3931 383.7744,655.3931 Q382.4297,655.3931 381.7449,656.4597 Q381.0601,657.5264 381.0601,659.6265 Q381.0601,661.7183 381.7449,662.7849 Q382.4297,663.8516 383.7744,663.8516 Q384.4053,663.8516 384.9988,663.5818 Q385.5923,663.312 386.2231,662.731 Z " fill="#000000"/><text fill="#000000" font-family="sans-serif" font-size="12" font-style="italic" lengthAdjust="spacing" textLength="88" x="397.25" y="655.6016">«PersonalData»</text><text fill="#000000" font-family="sans-serif" font-size="14" lengthAdjust="spacing" textLength="55" x="413.75" y="671.668">location</text><line style="stroke:#181818;stroke-width:0.5;" x1="363" x2="492" y1="679.6211" y2="679.6211"/><text fill="#000000" font-family="sans-serif" font-size="14" lengthAdjust="spacing" textLength="119" x="368" y="697.1563">category: general</text><line style="stroke:#181818;stroke-width:0.5;" x1="363" x2="492" y1="704.1094" y2="704.1094"/></g><!--class LegalGroundSpecialCategory--><g id="elem_LegalGroundSpecialCategory"><rect codeLine="16" fill="#FFFFFF" height="287.457" id="LegalGroundSpecialCategory" rx="2.5" ry="2.5" style="stroke:#A9A9A9;stroke-width:0.5;" width="235" x="7" y="847"/><ellipse cx="24.25" cy="867.3105" fill="#ADD1B2" rx="11" ry="11" style="stroke:#181818;stroke-width:1.0;"/><path d="M26.7231,873.4536 Q26.1421,873.7524 25.5029,873.9019 Q24.8638,874.0513 24.1582,874.0513 Q21.6514,874.0513 20.3315,872.3994 Q19.0117,870.7476 19.0117,867.6265 Q19.0117,864.4971 20.3315,862.8452 Q21.6514,861.1934 24.1582,861.1934 Q24.8638,861.1934 25.5112,861.3428 Q26.1587,861.4922 26.7231,861.791 L26.7231,864.5137 Q26.0923,863.9326 25.4988,863.6628 Q24.9053,863.3931 24.2744,863.3931 Q22.9297,863.3931 22.2449,864.4597 Q21.5601,865.5264 21.5601,867.6265 Q21.5601,869.7183 22.2449,870.7849 Q22.9297,871.8516 24.2744,871.8516 Q24.9053,871.8516 25.4988,871.5818 Q26.0923,871.312 26.7231,870.731 Z " fill="#000000"/><text fill="#000000" font-family="sans-serif" font-size="12" font-style="italic" lengthAdjust="spacing" textLength="85" x="95.25" y="863.6016">«NotRequired»</text><text fill="#D3D3D3" font-family="sans-serif" font-size="14" lengthAdjust="spacing" textLength="198" x="38.75" y="879.668">LegalGroundSpecialCategory</text><line style="stroke:#A9A9A9;stroke-width:0.5;" x1="8" x2="241" y1="887.6211" y2="887.6211"/><text fill="#D3D3D3" font-family="sans-serif" font-size="14" lengthAdjust="spacing" textLength="119" x="13" y="905.1563">unspecified: false</text><text fill="#D3D3D3" font-family="sans-serif" font-size="14" lengthAdjust="spacing" textLength="94" x="13" y="921.6445">consent: false</text><text fill="#D3D3D3" font-family="sans-serif" font-size="14" lengthAdjust="spacing" textLength="189" x="13" y="938.1328">employment_purpose: false</text><text fill="#D3D3D3" font-family="sans-serif" font-size="14" lengthAdjust="spacing" textLength="143" x="13" y="954.6211">social_purpose: false</text><text fill="#D3D3D3" font-family="sans-serif" font-size="14" lengthAdjust="spacing" textLength="127" x="13" y="971.1094">vital_interest: false</text><text fill="#D3D3D3" font-family="sans-serif" font-size="14" lengthAdjust="spacing" textLength="146" x="13" y="987.5977">nonprofit_body: false</text><text fill="#D3D3D3" font-family="sans-serif" font-size="14" lengthAdjust="spacing" textLength="178" x="13" y="1004.0859">public_from_subject: false</text><text fill="#D3D3D3" font-family="sans-serif" font-size="14" lengthAdjust="spacing" textLength="116" x="13" y="1020.5742">legal_claim: false</text><text fill="#D3D3D3" font-family="sans-serif" font-size="14" lengthAdjust="spacing" textLength="223" x="13" y="1037.0625">substantial_public_interest: false</text><text fill="#D3D3D3" font-family="sans-serif" font-size="14" lengthAdjust="spacing" textLength="180" x="13" y="1053.5508">preventive_medicine: false</text><text fill="#D3D3D3" font-family="sans-serif" font-size="14" lengthAdjust="spacing" textLength="197" x="13" y="1070.0391">occupational_medicine: false</text><text fill="#D3D3D3" font-family="sans-serif" font-size="14" lengthAdjust="spacing" textLength="132" x="13" y="1086.5273">public_health: false</text><text fill="#D3D3D3" font-family="sans-serif" font-size="14" lengthAdjust="spacing" textLength="103" x="13" y="1103.0156">archiving: false</text><text fill="#D3D3D3" font-family="sans-serif" font-size="14" lengthAdjust="spacing" textLength="175" x="13" y="1119.5039">statistical_purposes: false</text><line style="stroke:#A9A9A9;stroke-width:0.5;" x1="8" x2="241" y1="1126.457" y2="1126.457"/></g><!--class LegalGround--><g id="elem_LegalGround"><rect codeLine="32" fill="#F1F1F1" height="64.4883" id="LegalGround" rx="2.5" ry="2.5" style="stroke:#181818;stroke-width:0.5;" width="120" x="277.5" y="958.5"/><ellipse cx="292.5" cy="974.5" fill="#ADD1B2" rx="11" ry="11" style="stroke:#181818;stroke-width:1.0;"/><path d="M294.9731,980.6431 Q294.3921,980.9419 293.7529,981.0913 Q293.1138,981.2407 292.4082,981.2407 Q289.9014,981.2407 288.5815,979.5889 Q287.2617,977.937 287.2617,974.8159 Q287.2617,971.6865 288.5815,970.0347 Q289.9014,968.3828 292.4082,968.3828 Q293.1138,968.3828 293.7612,968.5322 Q294.4087,968.6816 294.9731,968.9805 L294.9731,971.7031 Q294.3423,971.1221 293.7488,970.8523 Q293.1553,970.5825 292.5244,970.5825 Q291.1797,970.5825 290.4949,971.6492 Q289.8101,972.7158 289.8101,974.8159 Q289.8101,976.9077 290.4949,977.9744 Q291.1797,979.041 292.5244,979.041 Q293.1553,979.041 293.7488,978.7712 Q294.3423,978.5015 294.9731,977.9204 Z " fill="#000000"/><text fill="#000000" font-family="sans-serif" font-size="14" lengthAdjust="spacing" textLength="88" x="306.5" y="979.791">LegalGround</text><line style="stroke:#181818;stroke-width:0.5;" x1="278.5" x2="396.5" y1="990.5" y2="990.5"/><text fill="#000000" font-family="sans-serif" font-size="14" lengthAdjust="spacing" textLength="90" x="283.5" y="1008.0352">consent: true</text><line style="stroke:#181818;stroke-width:0.5;" x1="278.5" x2="396.5" y1="1014.9883" y2="1014.9883"/></g><!--class Consent--><g id="elem_Consent"><rect codeLine="35" fill="#98FB98" height="172.0391" id="Consent" rx="2.5" ry="2.5" style="stroke:#00FF7F;stroke-width:0.5;" width="170" x="432.5" y="904.5"/><ellipse cx="484.75" cy="924.8105" fill="#ADD1B2" rx="11" ry="11" style="stroke:#181818;stroke-width:1.0;"/><path d="M487.2231,930.9536 Q486.6421,931.2524 486.0029,931.4019 Q485.3638,931.5513 484.6582,931.5513 Q482.1514,931.5513 480.8315,929.8994 Q479.5117,928.2476 479.5117,925.1265 Q479.5117,921.9971 480.8315,920.3452 Q482.1514,918.6934 484.6582,918.6934 Q485.3638,918.6934 486.0112,918.8428 Q486.6587,918.9922 487.2231,919.291 L487.2231,922.0137 Q486.5923,921.4326 485.9988,921.1628 Q485.4053,920.8931 484.7744,920.8931 Q483.4297,920.8931 482.7449,921.9597 Q482.0601,923.0264 482.0601,925.1265 Q482.0601,927.2183 482.7449,928.2849 Q483.4297,929.3516 484.7744,929.3516 Q485.4053,929.3516 485.9988,929.0818 Q486.5923,928.812 487.2231,928.231 Z " fill="#000000"/><text fill="#000000" font-family="sans-serif" font-size="12" font-style="italic" lengthAdjust="spacing" textLength="53" x="507.25" y="921.1016">«Artifact»</text><text fill="#000000" font-family="sans-serif" font-size="14" lengthAdjust="spacing" textLength="57" x="505.25" y="937.168">Consent</text><line style="stroke:#00FF7F;stroke-width:0.5;" x1="433.5" x2="601.5" y1="945.1211" y2="945.1211"/><text fill="#000000" font-family="sans-serif" font-size="14" lengthAdjust="spacing" textLength="133" x="438.5" y="962.6563">clear_purpose: true</text><text fill="#000000" font-family="sans-serif" font-size="14" lengthAdjust="spacing" textLength="131" x="438.5" y="979.1445">unambiguous: true</text><text fill="#000000" font-family="sans-serif" font-size="14" lengthAdjust="spacing" textLength="158" x="438.5" y="995.6328">affirmative_action: true</text><text fill="#000000" font-family="sans-serif" font-size="14" lengthAdjust="spacing" textLength="141" x="438.5" y="1012.1211">distinguishable: true</text><text fill="#000000" font-family="sans-serif" font-size="14" lengthAdjust="spacing" textLength="87" x="438.5" y="1028.6094">specific: true</text><text fill="#000000" font-family="sans-serif" font-size="14" lengthAdjust="spacing" textLength="128" x="438.5" y="1045.0977">withdrawable: true</text><text fill="#000000" font-family="sans-serif" font-size="14" lengthAdjust="spacing" textLength="118" x="438.5" y="1061.5859">freely_given: true</text><line style="stroke:#00FF7F;stroke-width:0.5;" x1="433.5" x2="601.5" y1="1068.5391" y2="1068.5391"/></g><!--class PrivacyPolicy--><g id="elem_PrivacyPolicy"><rect codeLine="44" fill="#98FB98" height="270.9688" id="PrivacyPolicy" rx="2.5" ry="2.5" style="stroke:#00FF7F;stroke-width:0.5;" width="244" x="637.5" y="855"/><ellipse cx="712.25" cy="875.3105" fill="#ADD1B2" rx="11" ry="11" style="stroke:#181818;stroke-width:1.0;"/><path d="M714.7231,881.4536 Q714.1421,881.7524 713.5029,881.9019 Q712.8638,882.0513 712.1582,882.0513 Q709.6514,882.0513 708.3315,880.3994 Q707.0117,878.7476 707.0117,875.6265 Q707.0117,872.4971 708.3315,870.8452 Q709.6514,869.1934 712.1582,869.1934 Q712.8638,869.1934 713.5112,869.3428 Q714.1587,869.4922 714.7231,869.791 L714.7231,872.5137 Q714.0923,871.9326 713.4988,871.6628 Q712.9053,871.3931 712.2744,871.3931 Q710.9297,871.3931 710.2449,872.4597 Q709.5601,873.5264 709.5601,875.6265 Q709.5601,877.7183 710.2449,878.7849 Q710.9297,879.8516 712.2744,879.8516 Q712.9053,879.8516 713.4988,879.5818 Q714.0923,879.312 714.7231,878.731 Z " fill="#000000"/><text fill="#000000" font-family="sans-serif" font-size="12" font-style="italic" lengthAdjust="spacing" textLength="53" x="749.25" y="871.6016">«Artifact»</text><text fill="#000000" font-family="sans-serif" font-size="14" lengthAdjust="spacing" textLength="86" x="732.75" y="887.668">PrivacyPolicy</text><line style="stroke:#00FF7F;stroke-width:0.5;" x1="638.5" x2="880.5" y1="895.6211" y2="895.6211"/><text fill="#000000" font-family="sans-serif" font-size="14" lengthAdjust="spacing" textLength="194" x="643.5" y="913.1563">controller_contact_info: true</text><text fill="#000000" font-family="sans-serif" font-size="14" lengthAdjust="spacing" textLength="154" x="643.5" y="929.6445">dpo_contact_info: true</text><text fill="#000000" font-family="sans-serif" font-size="14" lengthAdjust="spacing" textLength="196" x="643.5" y="946.1328">purpose_of_processing: true</text><text fill="#000000" font-family="sans-serif" font-size="14" lengthAdjust="spacing" textLength="111" x="643.5" y="962.6211">legal_basis: true</text><text fill="#000000" font-family="sans-serif" font-size="14" lengthAdjust="spacing" textLength="140" x="643.5" y="979.1094">data_recipients: true</text><text fill="#000000" font-family="sans-serif" font-size="14" lengthAdjust="spacing" textLength="140" x="643.5" y="995.5977">storage_period: true</text><text fill="#000000" font-family="sans-serif" font-size="14" lengthAdjust="spacing" textLength="141" x="643.5" y="1012.0859">right_to_access: true</text><text fill="#000000" font-family="sans-serif" font-size="14" lengthAdjust="spacing" textLength="139" x="643.5" y="1028.5742">right_to_rectify: true</text><text fill="#000000" font-family="sans-serif" font-size="14" lengthAdjust="spacing" textLength="149" x="643.5" y="1045.0625">right_to_erasure: true</text><text fill="#000000" font-family="sans-serif" font-size="14" lengthAdjust="spacing" textLength="167" x="643.5" y="1061.5508">right_to_portability: true</text><text fill="#000000" font-family="sans-serif" font-size="14" lengthAdjust="spacing" textLength="221" x="643.5" y="1078.0391">right_to_withdraw_consent: true</text><text fill="#000000" font-family="sans-serif" font-size="14" lengthAdjust="spacing" textLength="211" x="643.5" y="1094.5273">right_to_lodge_complaint: true</text><text fill="#000000" font-family="sans-serif" font-size="14" lengthAdjust="spacing" textLength="232" x="643.5" y="1111.0156">automated_decision_making: true</text><line style="stroke:#00FF7F;stroke-width:0.5;" x1="638.5" x2="880.5" y1="1117.9688" y2="1117.9688"/></g><!--class FilingSystem--><g id="elem_FilingSystem"><rect codeLine="59" fill="#FFFFFF" height="89.5977" id="FilingSystem" rx="2.5" ry="2.5" style="stroke:#A9A9A9;stroke-width:0.5;" width="158" x="697.5" y="7"/><ellipse cx="730.5" cy="27.3105" fill="#ADD1B2" rx="11" ry="11" style="stroke:#181818;stroke-width:1.0;"/><path d="M732.9731,33.4536 Q732.3921,33.7524 731.7529,33.9019 Q731.1138,34.0513 730.4082,34.0513 Q727.9014,34.0513 726.5815,32.3994 Q725.2617,30.7476 725.2617,27.6265 Q725.2617,24.4971 726.5815,22.8452 Q727.9014,21.1934 730.4082,21.1934 Q731.1138,21.1934 731.7612,21.3428 Q732.4087,21.4922 732.9731,21.791 L732.9731,24.5137 Q732.3423,23.9326 731.7488,23.6628 Q731.1553,23.3931 730.5244,23.3931 Q729.1797,23.3931 728.4949,24.4597 Q727.8101,25.5264 727.8101,27.6265 Q727.8101,29.7183 728.4949,30.7849 Q729.1797,31.8516 730.5244,31.8516 Q731.1553,31.8516 731.7488,31.5818 Q732.3423,31.312 732.9731,30.731 Z " fill="#000000"/><text fill="#000000" font-family="sans-serif" font-size="12" font-style="italic" lengthAdjust="spacing" textLength="85" x="749" y="23.6016">«NotRequired»</text><text fill="#D3D3D3" font-family="sans-serif" font-size="14" lengthAdjust="spacing" textLength="86" x="748.5" y="39.668">FilingSystem</text><line style="stroke:#A9A9A9;stroke-width:0.5;" x1="698.5" x2="854.5" y1="47.6211" y2="47.6211"/><text fill="#D3D3D3" font-family="sans-serif" font-size="14" lengthAdjust="spacing" textLength="129" x="703.5" y="65.1563">data_storage: false</text><text fill="#D3D3D3" font-family="sans-serif" font-size="14" lengthAdjust="spacing" textLength="146" x="703.5" y="81.6445">storage_limited: false</text><line style="stroke:#A9A9A9;stroke-width:0.5;" x1="698.5" x2="854.5" y1="88.5977" y2="88.5977"/></g><!--class SecurityMeasures--><g id="elem_SecurityMeasures"><rect codeLine="63" fill="#F1F1F1" height="80.9766" id="SecurityMeasures" rx="2.5" ry="2.5" style="stroke:#181818;stroke-width:0.5;" width="151" x="511" y="11.5"/><ellipse cx="526" cy="27.5" fill="#ADD1B2" rx="11" ry="11" style="stroke:#181818;stroke-width:1.0;"/><path d="M528.4731,33.6431 Q527.8921,33.9419 527.2529,34.0913 Q526.6138,34.2407 525.9082,34.2407 Q523.4014,34.2407 522.0815,32.5889 Q520.7617,30.937 520.7617,27.8159 Q520.7617,24.6865 522.0815,23.0347 Q523.4014,21.3828 525.9082,21.3828 Q526.6138,21.3828 527.2612,21.5322 Q527.9087,21.6816 528.4731,21.9805 L528.4731,24.7031 Q527.8423,24.1221 527.2488,23.8523 Q526.6553,23.5825 526.0244,23.5825 Q524.6797,23.5825 523.9949,24.6492 Q523.3101,25.7158 523.3101,27.8159 Q523.3101,29.9077 523.9949,30.9744 Q524.6797,32.041 526.0244,32.041 Q526.6553,32.041 527.2488,31.7712 Q527.8423,31.5015 528.4731,30.9204 Z " fill="#000000"/><text fill="#000000" font-family="sans-serif" font-size="14" lengthAdjust="spacing" textLength="119" x="540" y="32.791">SecurityMeasures</text><line style="stroke:#181818;stroke-width:0.5;" x1="512" x2="661" y1="43.5" y2="43.5"/><text fill="#000000" font-family="sans-serif" font-size="14" lengthAdjust="spacing" textLength="92" x="517" y="61.0352">technologies:</text><text fill="#000000" font-family="sans-serif" font-size="14" lengthAdjust="spacing" textLength="135" x="517" y="77.5234">isms_standard: true</text><line style="stroke:#181818;stroke-width:0.5;" x1="512" x2="661" y1="84.4766" y2="84.4766"/></g><!--class ProcessingSystem--><g id="elem_ProcessingSystem"><rect codeLine="67" fill="#F1F1F1" height="179.9063" id="ProcessingSystem" rx="2.5" ry="2.5" style="stroke:#181818;stroke-width:0.5;" width="171" x="596" y="174"/><ellipse cx="618.65" cy="190" fill="#ADD1B2" rx="11" ry="11" style="stroke:#181818;stroke-width:1.0;"/><path d="M621.1231,196.1431 Q620.5421,196.4419 619.9029,196.5913 Q619.2638,196.7407 618.5582,196.7407 Q616.0514,196.7407 614.7315,195.0889 Q613.4117,193.437 613.4117,190.3159 Q613.4117,187.1865 614.7315,185.5347 Q616.0514,183.8828 618.5582,183.8828 Q619.2638,183.8828 619.9112,184.0322 Q620.5587,184.1816 621.1231,184.4805 L621.1231,187.2031 Q620.4923,186.6221 619.8988,186.3523 Q619.3053,186.0825 618.6744,186.0825 Q617.3297,186.0825 616.6449,187.1492 Q615.9601,188.2158 615.9601,190.3159 Q615.9601,192.4077 616.6449,193.4744 Q617.3297,194.541 618.6744,194.541 Q619.3053,194.541 619.8988,194.2712 Q620.4923,194.0015 621.1231,193.4204 Z " fill="#000000"/><text fill="#000000" font-family="sans-serif" font-size="14" lengthAdjust="spacing" textLength="122" x="634.35" y="195.291">ProcessingSystem</text><line style="stroke:#181818;stroke-width:0.5;" x1="597" x2="766" y1="206" y2="206"/><text fill="#000000" font-family="sans-serif" font-size="14" lengthAdjust="spacing" textLength="129" x="602" y="223.5352">confidentiality:true</text><text fill="#000000" font-family="sans-serif" font-size="14" lengthAdjust="spacing" textLength="89" x="602" y="240.0234">integrity:true</text><text fill="#000000" font-family="sans-serif" font-size="14" lengthAdjust="spacing" textLength="104" x="602" y="256.5117">availability:true</text><text fill="#000000" font-family="sans-serif" font-size="14" lengthAdjust="spacing" textLength="87" x="602" y="273">resilient:true</text><text fill="#000000" font-family="sans-serif" font-size="14" lengthAdjust="spacing" textLength="125" x="602" y="289.4883">pseudonimity:true</text><text fill="#000000" font-family="sans-serif" font-size="14" lengthAdjust="spacing" textLength="159" x="602" y="305.9766">data_minimization:true</text><text fill="#000000" font-family="sans-serif" font-size="14" lengthAdjust="spacing" textLength="125" x="602" y="322.4648">redundancies:true</text><text fill="#000000" font-family="sans-serif" font-size="14" lengthAdjust="spacing" textLength="74" x="602" y="338.9531">tested:true</text><line style="stroke:#181818;stroke-width:0.5;" x1="597" x2="766" y1="345.9063" y2="345.9063"/></g><!--class Check_parking_availability--><g id="elem_Check_parking_availability"><rect codeLine="77" fill="#F1F1F1" height="73.1094" id="Check_parking_availability" rx="2.5" ry="2.5" style="stroke:#181818;stroke-width:0.5;" width="213" x="575" y="431"/><ellipse cx="590" cy="451.3105" fill="#ADD1B2" rx="11" ry="11" style="stroke:#181818;stroke-width:1.0;"/><path d="M592.4731,457.4536 Q591.8921,457.7524 591.2529,457.9019 Q590.6138,458.0513 589.9082,458.0513 Q587.4014,458.0513 586.0815,456.3994 Q584.7617,454.7476 584.7617,451.6265 Q584.7617,448.4971 586.0815,446.8452 Q587.4014,445.1934 589.9082,445.1934 Q590.6138,445.1934 591.2612,445.3428 Q591.9087,445.4922 592.4731,445.791 L592.4731,448.5137 Q591.8423,447.9326 591.2488,447.6628 Q590.6553,447.3931 590.0244,447.3931 Q588.6797,447.3931 587.9949,448.4597 Q587.3101,449.5264 587.3101,451.6265 Q587.3101,453.7183 587.9949,454.7849 Q588.6797,455.8516 590.0244,455.8516 Q590.6553,455.8516 591.2488,455.5818 Q591.8423,455.312 592.4731,454.731 Z " fill="#000000"/><text fill="#000000" font-family="sans-serif" font-size="12" font-style="italic" lengthAdjust="spacing" textLength="101" x="644" y="447.6016">«ProcessingTask»</text><text fill="#000000" font-family="sans-serif" font-size="14" lengthAdjust="spacing" textLength="181" x="604" y="463.668">Check_parking_availability</text><line style="stroke:#181818;stroke-width:0.5;" x1="576" x2="787" y1="471.6211" y2="471.6211"/><text fill="#000000" font-family="sans-serif" font-size="14" lengthAdjust="spacing" textLength="98" x="581" y="489.1563">recorded: true</text><line style="stroke:#181818;stroke-width:0.5;" x1="576" x2="787" y1="496.1094" y2="496.1094"/></g><!--class RecordOfProcessing--><g id="elem_RecordOfProcessing"><rect codeLine="80" fill="#98FB98" height="188.5273" id="RecordOfProcessing" rx="2.5" ry="2.5" style="stroke:#00FF7F;stroke-width:0.5;" width="213" x="575" y="581"/><ellipse cx="609.35" cy="601.3105" fill="#ADD1B2" rx="11" ry="11" style="stroke:#181818;stroke-width:1.0;"/><path d="M611.8231,607.4536 Q611.2421,607.7524 610.6029,607.9019 Q609.9638,608.0513 609.2582,608.0513 Q606.7514,608.0513 605.4315,606.3994 Q604.1117,604.7476 604.1117,601.6265 Q604.1117,598.4971 605.4315,596.8452 Q606.7514,595.1934 609.2582,595.1934 Q609.9638,595.1934 610.6112,595.3428 Q611.2587,595.4922 611.8231,595.791 L611.8231,598.5137 Q611.1923,597.9326 610.5988,597.6628 Q610.0053,597.3931 609.3744,597.3931 Q608.0297,597.3931 607.3449,598.4597 Q606.6601,599.5264 606.6601,601.6265 Q606.6601,603.7183 607.3449,604.7849 Q608.0297,605.8516 609.3744,605.8516 Q610.0053,605.8516 610.5988,605.5818 Q611.1923,605.312 611.8231,604.731 Z " fill="#000000"/><text fill="#000000" font-family="sans-serif" font-size="12" font-style="italic" lengthAdjust="spacing" textLength="53" x="670.15" y="597.6016">«Artifact»</text><text fill="#000000" font-family="sans-serif" font-size="14" lengthAdjust="spacing" textLength="138" x="627.65" y="613.668">RecordOfProcessing</text><line style="stroke:#00FF7F;stroke-width:0.5;" x1="576" x2="787" y1="621.6211" y2="621.6211"/><text fill="#000000" font-family="sans-serif" font-size="14" lengthAdjust="spacing" textLength="74" x="581" y="639.1563">name: true</text><text fill="#000000" font-family="sans-serif" font-size="14" lengthAdjust="spacing" textLength="93" x="581" y="655.6445">purpose: true</text><text fill="#000000" font-family="sans-serif" font-size="14" lengthAdjust="spacing" textLength="138" x="581" y="672.1328">contact_details: true</text><text fill="#000000" font-family="sans-serif" font-size="14" lengthAdjust="spacing" textLength="199" x="581" y="688.6211">personal_data_category: true</text><text fill="#000000" font-family="sans-serif" font-size="14" lengthAdjust="spacing" textLength="177" x="581" y="705.1094">data_storage_period: true</text><text fill="#000000" font-family="sans-serif" font-size="14" lengthAdjust="spacing" textLength="162" x="581" y="721.5977">security_measures: true</text><text fill="#000000" font-family="sans-serif" font-size="14" lengthAdjust="spacing" textLength="201" x="581" y="738.0859">third_countries_transfer: true</text><text fill="#000000" font-family="sans-serif" font-size="14" lengthAdjust="spacing" textLength="103" x="581" y="754.5742">recipients: true</text><line style="stroke:#00FF7F;stroke-width:0.5;" x1="576" x2="787" y1="761.5273" y2="761.5273"/></g><!--class DataHandler--><g id="elem_DataHandler"><rect fill="#F1F1F1" height="48" id="DataHandler" rx="2.5" ry="2.5" style="stroke:#181818;stroke-width:0.5;" width="117" x="250" y="443.5"/><ellipse cx="265" cy="459.5" fill="#ADD1B2" rx="11" ry="11" style="stroke:#181818;stroke-width:1.0;"/><path d="M267.4731,465.6431 Q266.8921,465.9419 266.2529,466.0913 Q265.6138,466.2407 264.9082,466.2407 Q262.4014,466.2407 261.0815,464.5889 Q259.7617,462.937 259.7617,459.8159 Q259.7617,456.6865 261.0815,455.0347 Q262.4014,453.3828 264.9082,453.3828 Q265.6138,453.3828 266.2612,453.5322 Q266.9087,453.6816 267.4731,453.9805 L267.4731,456.7031 Q266.8423,456.1221 266.2488,455.8523 Q265.6553,455.5825 265.0244,455.5825 Q263.6797,455.5825 262.9949,456.6492 Q262.3101,457.7158 262.3101,459.8159 Q262.3101,461.9077 262.9949,462.9744 Q263.6797,464.041 265.0244,464.041 Q265.6553,464.041 266.2488,463.7712 Q266.8423,463.5015 267.4731,462.9204 Z " fill="#000000"/><text fill="#000000" font-family="sans-serif" font-size="14" lengthAdjust="spacing" textLength="85" x="279" y="464.791">DataHandler</text><line style="stroke:#181818;stroke-width:0.5;" x1="251" x2="366" y1="475.5" y2="475.5"/><line style="stroke:#181818;stroke-width:0.5;" x1="251" x2="366" y1="483.5" y2="483.5"/></g><!--link location to Consent--><g id="link_location_Consent"><path codeLine="90" d="M437.82,712.41 C451.17,758.81 474.83,841.11 492.92,904 " fill="none" id="location-Consent" style="stroke:#181818;stroke-width:1.0;"/><polygon fill="#000000" points="473.882,813.4605,474.2064,803.9555,468.5575,805.5801,473.882,813.4605" style="stroke:#000000;stroke-width:1.0;"/><text fill="#000000" font-family="sans-serif" font-size="13" lengthAdjust="spacing" textLength="62" x="481.5" y="813.5684">manifests</text></g><!--link location to PrivacyPolicy--><g id="link_location_PrivacyPolicy"><path codeLine="91" d="M469.43,712.29 C508.83,746.25 569.1,799.08 619.5,847 C625.28,852.5 631.15,858.16 637.05,863.9 " fill="none" id="location-PrivacyPolicy" style="stroke:#181818;stroke-width:1.0;"/><polygon fill="#000000" points="593.2082,812.0093,588.4714,803.7622,584.5286,808.1214,593.2082,812.0093" style="stroke:#000000;stroke-width:1.0;"/><text fill="#000000" font-family="sans-serif" font-size="13" lengthAdjust="spacing" textLength="62" x="598.5" y="813.5684">manifests</text></g><!--link AV to location--><g id="link_AV_location"><path codeLine="92" d="M452.59,496.28 C447.41,533.07 438.27,598.02 432.57,638.52 " fill="none" id="AV-location" style="stroke:#181818;stroke-width:1.0;"/><polygon fill="#000000" points="451.8031,547.6065,455.974,539.0593,450.1535,538.2401,451.8031,547.6065" style="stroke:#000000;stroke-width:1.0;"/><text fill="#000000" font-family="sans-serif" font-size="13" lengthAdjust="spacing" textLength="54" x="461.5" y="547.5684">provides</text></g><!--link PSP to ProcessingSystem--><g id="link_PSP_ProcessingSystem"><path codeLine="93" d="M294.8,64.67 C361.66,82.11 484.74,118.93 578.5,174 C584.21,177.35 589.9,181.03 595.5,184.94 " fill="none" id="PSP-ProcessingSystem" style="stroke:#181818;stroke-width:1.0;"/><polygon fill="#000000" points="529.1424,137.5121,521.8356,131.4243,519.6528,136.8818,529.1424,137.5121" style="stroke:#000000;stroke-width:1.0;"/><text fill="#000000" font-family="sans-serif" font-size="13" lengthAdjust="spacing" textLength="74" x="533.5" y="140.5684">implements</text></g><!--link PSP to PLT--><g id="link_PSP_PLT"><path codeLine="94" d="M198.09,73.44 C175.98,85.53 151.98,103.2 139.5,127 C121.73,160.9 128.45,206.36 135.78,235.17 " fill="none" id="PSP-PLT" style="stroke:#181818;stroke-width:1.0;"/><polygon fill="#000000" points="142.7024,140.321,148.6967,132.9372,143.2118,130.8241,142.7024,140.321" style="stroke:#000000;stroke-width:1.0;"/><text fill="#000000" font-family="sans-serif" font-size="13" lengthAdjust="spacing" textLength="66" x="153.5" y="140.5684">authorizes</text></g><!--link Check_parking_availability to RecordOfProcessing--><g id="link_Check_parking_availability_RecordOfProcessing"><path codeLine="95" d="M681.5,504.38 C681.5,525.59 681.5,553.53 681.5,580.62 " fill="none" id="Check_parking_availability-RecordOfProcessing" style="stroke:#181818;stroke-width:1.0;"/><polygon fill="#000000" points="686.5,547.6553,689.4389,538.6102,683.5611,538.6102,686.5,547.6553" style="stroke:#000000;stroke-width:1.0;"/><text fill="#000000" font-family="sans-serif" font-size="13" lengthAdjust="spacing" textLength="62" x="695.5" y="547.5684">manifests</text></g><!--link location to LegalGroundSpecialCategory--><g id="link_location_LegalGroundSpecialCategory"><path codeLine="96" d="M391.9,712.22 C357.75,746.58 304.83,800.08 259.5,847 C253.82,852.88 248.01,858.91 242.16,865.01 " fill="none" id="location-LegalGroundSpecialCategory" style="stroke:#181818;stroke-width:1.0;"/><polygon fill="#000000" points="303.0003,812.2263,311.4303,807.8234,307.2323,803.7092,303.0003,812.2263" style="stroke:#000000;stroke-width:1.0;"/><text fill="#000000" font-family="sans-serif" font-size="13" lengthAdjust="spacing" textLength="51" x="315.5" y="813.5684">requires</text></g><!--link location to LegalGround--><g id="link_location_LegalGround"><path codeLine="97" d="M416.56,712.39 C409.1,737 399.06,770.44 390.5,800 C374.39,855.62 356.38,920.66 346.05,958.26 " fill="none" id="location-LegalGround" style="stroke:#181818;stroke-width:1.0;"/><polygon fill="#000000" points="394.1217,813.4615,399.4401,805.5771,393.79,803.9568,394.1217,813.4615" style="stroke:#000000;stroke-width:1.0;"/><text fill="#000000" font-family="sans-serif" font-size="13" lengthAdjust="spacing" textLength="51" x="404.5" y="813.5684">requires</text></g><!--link PSP to DataHandler--><g id="link_PSP_DataHandler"><path codeLine="98" d="M248.83,80.95 C253.49,134.3 265.05,254.2 282.5,354 C286.48,376.79 292.16,401.9 297.19,422.6 " fill="none" id="PSP-to-DataHandler" style="stroke:#181818;stroke-width:1.0;"/><polygon fill="none" points="303.96,420.81,302.02,441.91,290.38,424.2,303.96,420.81" style="stroke:#181818;stroke-width:1.0;"/></g><!--link PLT to DataHandler--><g id="link_PLT_DataHandler"><path codeLine="99" d="M155.91,292.95 C168.7,322.07 191.51,367.96 220.5,401 C229.93,411.74 241.39,421.81 252.88,430.69 " fill="none" id="PLT-to-DataHandler" style="stroke:#181818;stroke-width:1.0;"/><polygon fill="none" points="256.78,424.87,268.86,442.27,248.56,436.2,256.78,424.87" style="stroke:#181818;stroke-width:1.0;"/></g><!--link Recipient to DataHandler--><g id="link_Recipient_DataHandler"><path codeLine="100" d="M349.93,292.6 C341.94,326.1 328.38,383.03 318.96,422.58 " fill="none" id="Recipient-to-DataHandler" style="stroke:#181818;stroke-width:1.0;"/><polygon fill="none" points="325.82,423.99,314.38,441.82,312.2,420.75,325.82,423.99" style="stroke:#181818;stroke-width:1.0;"/></g><!--link ThirdParty to DataHandler--><g id="link_ThirdParty_DataHandler"><path codeLine="101" d="M483.05,292.67 C468.74,310.66 449.18,334.33 430.5,354 C405.47,380.35 375.49,408.05 351.51,429.36 " fill="none" id="ThirdParty-to-DataHandler" style="stroke:#181818;stroke-width:1.0;"/><polygon fill="none" points="356.41,434.37,336.77,442.33,347.16,423.86,356.41,434.37" style="stroke:#181818;stroke-width:1.0;"/></g><!--link DataHandler to location--><g id="link_DataHandler_location"><path codeLine="102" d="M321.92,491.73 C342.59,527.51 382.36,596.36 406.76,638.59 " fill="none" id="DataHandler-location" style="stroke:#181818;stroke-width:1.0;"/><polygon fill="#000000" points="362.0011,546.9848,360.0214,537.6825,354.9318,540.6228,362.0011,546.9848" style="stroke:#000000;stroke-width:1.0;"/><text fill="#000000" font-family="sans-serif" font-size="13" lengthAdjust="spacing" textLength="51" x="368.5" y="547.5684">receives</text></g><!--link ProcessingSystem to Check_parking_availability--><g id="link_ProcessingSystem_Check_parking_availability"><path codeLine="103" d="M681.5,354.26 C681.5,381.21 681.5,409.27 681.5,430.59 " fill="none" id="ProcessingSystem-Check_parking_availability" style="stroke:#181818;stroke-width:1.0;"/><polygon fill="#000000" points="686.5,397.6553,689.4389,388.6102,683.5611,388.6102,686.5,397.6553" style="stroke:#000000;stroke-width:1.0;"/><text fill="#000000" font-family="sans-serif" font-size="13" lengthAdjust="spacing" textLength="57" x="695.5" y="397.5684">performs</text></g><!--link FilingSystem to ProcessingSystem--><g id="link_FilingSystem_ProcessingSystem"><path codeLine="104" d="M756.47,97.28 C748.84,114.15 739.76,134.21 730.61,154.44 " fill="none" id="FilingSystem-to-ProcessingSystem" style="stroke:#181818;stroke-width:1.0;"/><polygon fill="none" points="737.1,157.08,722.48,172.42,724.34,151.31,737.1,157.08" style="stroke:#181818;stroke-width:1.0;"/></g><!--link SecurityMeasures to ProcessingSystem--><g id="link_SecurityMeasures_ProcessingSystem"><path codeLine="105" d="M604.59,92.99 C614.93,115.84 628.33,145.46 641.04,173.56 " fill="none" id="SecurityMeasures-ProcessingSystem" style="stroke:#181818;stroke-width:1.0;"/><polygon fill="#000000" points="632.5609,140.2108,631.5103,130.7584,626.155,133.1812,632.5609,140.2108" style="stroke:#000000;stroke-width:1.0;"/><text fill="#000000" font-family="sans-serif" font-size="13" lengthAdjust="spacing" textLength="48" x="639.5" y="140.5684">secures</text></g><!--SRC=[ZLRDZkCs33x7J-4Ns1S85WDCizZfOROD9eFsA2WIRRCZIoubPv5jvzrBoPOTszb1Rp7_-P4V5MMaz-NnT2m_Vpuu6yWP0_JmKFvJ5kLxePBwyG_MVf51dlhpNw32IdryVcNzaPm2xztQ-GKKTWWsiCrlBhp0tpqIw9NLQuEaZvB2zKEpqZWb0peR4m9vPwM9XOrcnMx7QgWTNVTb3HP8cYBxFaCjpHEvtkfJnqL9SnXjjocBNMzzDAeGzBwifF5Gx9IpdXkPlg7jZBksB19TJvtpCAcyYmasuWi6bg8DGE3dGDRPZbo5GPoTlaxYhZyRLA8Yrme_G3_fJEn6S6VOpadxim_IXY5pyjsawWWkN31UGBIWKQ6TgtDAzLs2bmDij6F41gG9pIILf1gyeAtdAWA7y07LtB-Vb7U64ISt8HkeXvjv7mOv3-YH0bOoxvuo86b6DteLlPNj6UlUzNwKoAf2QcLgbbsvhr6XOtssxj4tycnoW77WQlpyZg7H9B_VM5G4OAwYve0vr4G2mejKrwDZZAxRUYTgYVYJvJoPokLoEdTFFBOdN2MwWLm9vgGRnd-M7dEpccaWA9CjItrm96iG7H0wFGe9woQ8u1YK67KjvI1S-tKjPZBvdc0jxXm5UKQ3OUEH4HIBySvwupINfXpJIEAabdrmF3JGGdCtdgScMlasjvuH_yevRNsw-W3j7GQNvMwNC1aXo2iOvHaLWos66uBdq2TGFN53to2rxEC80wZ6EkDgZEjSe6-zY6pJalHc5_Aqnkg63QXGGo9dX2evH7RMD7tAYqIJiHoW0izV4RfX8ppqsjbOzMYGEcmnYduavcO_pSoILiLYaoJm4U1E5tKU6b1lefCKqHMtsUTxpffNwT-6exZZrN2a8JUykpdoBF-zcfqs561smdAnnw-y-He25v2tiHklkqWTpbTzxlhkQljnSdo-Xj6DyX3V5rwrddd8c8X0qleAAA_acZVlnVpKVFeqtQ5zsKgB5MFfouUboV80B0tv0MMBsNnVCg4ll0vH6H_VvBzQcds9J0o8pykj6J-s-v8vqZZ27od01sDaXpkZ-Q2B3nx9VKa3lpvoMbeDDV_xKCOt-bVc2X_08dQm4Sx_4ZQgcxy66ztDxpN2F5BWEvtAM4CR9_fpq7WwG9MZDlekhapAluvMRAx5_MccrKprUCx9cMLR3ko9n-eNgTxg1E61Zmmjs7EK1fxuwR7HBlAFjZQdZZZPPCNHdcwZBQ_ZdmsVlNMmfSaNHkQ9v9Mj7WDpvjm7-CfClMly72_wQBs8-GqJ1eVO9jkzWBxNwcZrVphUciQOxyL_]--></g></svg>