<?xml version="1.0" encoding="UTF-8" standalone="no"?><svg xmlns="http://www.w3.org/2000/svg" xmlns:xlink="http://www.w3.org/1999/xlink" contentStyleType="text/css" height="1269px" preserveAspectRatio="none" style="width:1428px;height:1269px;background:#FFFFFF;" version="1.1" viewBox="0 0 1428 1269" width="1428px" zoomAndPan="magnify"><defs/><g><!--class PSP--><g id="elem_PSP"><rect codeLine="2" fill="#F1F1F1" height="56.6211" id="PSP" rx="2.5" ry="2.5" style="stroke:#181818;stroke-width:0.5;" width="96" x="1030" y="168.19"/><ellipse cx="1045" cy="188.5005" fill="#ADD1B2" rx="11" ry="11" style="stroke:#181818;stroke-width:1.0;"/><path d="M1047.4731,194.6436 Q1046.8921,194.9424 1046.2529,195.0919 Q1045.6138,195.2413 1044.9082,195.2413 Q1042.4014,195.2413 1041.0815,193.5894 Q1039.7617,191.9376 1039.7617,188.8165 Q1039.7617,185.6871 1041.0815,184.0352 Q1042.4014,182.3834 1044.9082,182.3834 Q1045.6138,182.3834 1046.2612,182.5328 Q1046.9087,182.6822 1047.4731,182.981 L1047.4731,185.7037 Q1046.8423,185.1226 1046.2488,184.8528 Q1045.6553,184.5831 1045.0244,184.5831 Q1043.6797,184.5831 1042.9949,185.6497 Q1042.3101,186.7164 1042.3101,188.8165 Q1042.3101,190.9083 1042.9949,191.9749 Q1043.6797,193.0416 1045.0244,193.0416 Q1045.6553,193.0416 1046.2488,192.7718 Q1046.8423,192.502 1047.4731,191.921 Z " fill="#000000"/><text fill="#000000" font-family="sans-serif" font-size="12" font-style="italic" lengthAdjust="spacing" textLength="68" x="1057" y="184.7916">«Controller»</text><text fill="#000000" font-family="sans-serif" font-size="14" lengthAdjust="spacing" textLength="24" x="1079" y="200.858">PSP</text><line style="stroke:#181818;stroke-width:0.5;" x1="1031" x2="1125" y1="208.8111" y2="208.8111"/><line style="stroke:#181818;stroke-width:0.5;" x1="1031" x2="1125" y1="216.8111" y2="216.8111"/></g><!--class AV--><g id="elem_AV"><rect codeLine="4" fill="#F1F1F1" height="56.6211" id="AV" rx="2.5" ry="2.5" style="stroke:#181818;stroke-width:0.5;" width="109" x="1081.5" y="583.69"/><ellipse cx="1096.5" cy="604.0005" fill="#ADD1B2" rx="11" ry="11" style="stroke:#181818;stroke-width:1.0;"/><path d="M1098.9731,610.1436 Q1098.3921,610.4424 1097.7529,610.5919 Q1097.1138,610.7413 1096.4082,610.7413 Q1093.9014,610.7413 1092.5815,609.0894 Q1091.2617,607.4376 1091.2617,604.3165 Q1091.2617,601.1871 1092.5815,599.5352 Q1093.9014,597.8834 1096.4082,597.8834 Q1097.1138,597.8834 1097.7612,598.0328 Q1098.4087,598.1822 1098.9731,598.481 L1098.9731,601.2037 Q1098.3423,600.6226 1097.7488,600.3528 Q1097.1553,600.0831 1096.5244,600.0831 Q1095.1797,600.0831 1094.4949,601.1497 Q1093.8101,602.2164 1093.8101,604.3165 Q1093.8101,606.4083 1094.4949,607.4749 Q1095.1797,608.5416 1096.5244,608.5416 Q1097.1553,608.5416 1097.7488,608.2718 Q1098.3423,608.002 1098.9731,607.421 Z " fill="#000000"/><text fill="#000000" font-family="sans-serif" font-size="12" font-style="italic" lengthAdjust="spacing" textLength="81" x="1108.5" y="600.2916">«DataSubject»</text><text fill="#000000" font-family="sans-serif" font-size="14" lengthAdjust="spacing" textLength="19" x="1139.5" y="616.358">AV</text><line style="stroke:#181818;stroke-width:0.5;" x1="1082.5" x2="1189.5" y1="624.3111" y2="624.3111"/><line style="stroke:#181818;stroke-width:0.5;" x1="1082.5" x2="1189.5" y1="632.3111" y2="632.3111"/></g><!--class PLT--><g id="elem_PLT"><rect codeLine="6" fill="#F1F1F1" height="56.6211" id="PLT" rx="2.5" ry="2.5" style="stroke:#181818;stroke-width:0.5;" width="96" x="1033" y="380.19"/><ellipse cx="1048" cy="400.5005" fill="#ADD1B2" rx="11" ry="11" style="stroke:#181818;stroke-width:1.0;"/><path d="M1050.4731,406.6436 Q1049.8921,406.9424 1049.2529,407.0919 Q1048.6138,407.2413 1047.9082,407.2413 Q1045.4014,407.2413 1044.0815,405.5894 Q1042.7617,403.9376 1042.7617,400.8165 Q1042.7617,397.6871 1044.0815,396.0352 Q1045.4014,394.3834 1047.9082,394.3834 Q1048.6138,394.3834 1049.2612,394.5328 Q1049.9087,394.6822 1050.4731,394.981 L1050.4731,397.7037 Q1049.8423,397.1226 1049.2488,396.8528 Q1048.6553,396.5831 1048.0244,396.5831 Q1046.6797,396.5831 1045.9949,397.6497 Q1045.3101,398.7164 1045.3101,400.8165 Q1045.3101,402.9083 1045.9949,403.9749 Q1046.6797,405.0416 1048.0244,405.0416 Q1048.6553,405.0416 1049.2488,404.7718 Q1049.8423,404.502 1050.4731,403.921 Z " fill="#000000"/><text fill="#000000" font-family="sans-serif" font-size="12" font-style="italic" lengthAdjust="spacing" textLength="68" x="1060" y="396.7916">«Processor»</text><text fill="#000000" font-family="sans-serif" font-size="14" lengthAdjust="spacing" textLength="24" x="1082" y="412.858">PLT</text><line style="stroke:#181818;stroke-width:0.5;" x1="1034" x2="1128" y1="420.8111" y2="420.8111"/><line style="stroke:#181818;stroke-width:0.5;" x1="1034" x2="1128" y1="428.8111" y2="428.8111"/></g><!--class Recipient--><g id="elem_Recipient"><rect codeLine="8" fill="#FFFFFF" height="56.6211" id="Recipient" rx="2.5" ry="2.5" style="stroke:#A9A9A9;stroke-width:0.5;" width="113" x="736.5" y="380.19"/><ellipse cx="751.5" cy="400.5005" fill="#ADD1B2" rx="11" ry="11" style="stroke:#181818;stroke-width:1.0;"/><path d="M753.9731,406.6436 Q753.3921,406.9424 752.7529,407.0919 Q752.1138,407.2413 751.4082,407.2413 Q748.9014,407.2413 747.5815,405.5894 Q746.2617,403.9376 746.2617,400.8165 Q746.2617,397.6871 747.5815,396.0352 Q748.9014,394.3834 751.4082,394.3834 Q752.1138,394.3834 752.7612,394.5328 Q753.4087,394.6822 753.9731,394.981 L753.9731,397.7037 Q753.3423,397.1226 752.7488,396.8528 Q752.1553,396.5831 751.5244,396.5831 Q750.1797,396.5831 749.4949,397.6497 Q748.8101,398.7164 748.8101,400.8165 Q748.8101,402.9083 749.4949,403.9749 Q750.1797,405.0416 751.5244,405.0416 Q752.1553,405.0416 752.7488,404.7718 Q753.3423,404.502 753.9731,403.921 Z " fill="#000000"/><text fill="#000000" font-family="sans-serif" font-size="12" font-style="italic" lengthAdjust="spacing" textLength="85" x="763.5" y="396.7916">«NotRequired»</text><text fill="#D3D3D3" font-family="sans-serif" font-size="14" lengthAdjust="spacing" textLength="63" x="774.5" y="412.858">Recipient</text><line style="stroke:#A9A9A9;stroke-width:0.5;" x1="737.5" x2="848.5" y1="420.8111" y2="420.8111"/><line style="stroke:#A9A9A9;stroke-width:0.5;" x1="737.5" x2="848.5" y1="428.8111" y2="428.8111"/></g><!--class ThirdParty--><g id="elem_ThirdParty"><rect codeLine="10" fill="#FFFFFF" height="56.6211" id="ThirdParty" rx="2.5" ry="2.5" style="stroke:#A9A9A9;stroke-width:0.5;" width="113" x="884.5" y="380.19"/><ellipse cx="899.5" cy="400.5005" fill="#ADD1B2" rx="11" ry="11" style="stroke:#181818;stroke-width:1.0;"/><path d="M901.9731,406.6436 Q901.3921,406.9424 900.7529,407.0919 Q900.1138,407.2413 899.4082,407.2413 Q896.9014,407.2413 895.5815,405.5894 Q894.2617,403.9376 894.2617,400.8165 Q894.2617,397.6871 895.5815,396.0352 Q896.9014,394.3834 899.4082,394.3834 Q900.1138,394.3834 900.7612,394.5328 Q901.4087,394.6822 901.9731,394.981 L901.9731,397.7037 Q901.3423,397.1226 900.7488,396.8528 Q900.1553,396.5831 899.5244,396.5831 Q898.1797,396.5831 897.4949,397.6497 Q896.8101,398.7164 896.8101,400.8165 Q896.8101,402.9083 897.4949,403.9749 Q898.1797,405.0416 899.5244,405.0416 Q900.1553,405.0416 900.7488,404.7718 Q901.3423,404.502 901.9731,403.921 Z " fill="#000000"/><text fill="#000000" font-family="sans-serif" font-size="12" font-style="italic" lengthAdjust="spacing" textLength="85" x="911.5" y="396.7916">«NotRequired»</text><text fill="#D3D3D3" font-family="sans-serif" font-size="14" lengthAdjust="spacing" textLength="71" x="918.5" y="412.858">ThirdParty</text><line style="stroke:#A9A9A9;stroke-width:0.5;" x1="885.5" x2="996.5" y1="420.8111" y2="420.8111"/><line style="stroke:#A9A9A9;stroke-width:0.5;" x1="885.5" x2="996.5" y1="428.8111" y2="428.8111"/></g><!--class parkingServiceCredential--><g id="elem_parkingServiceCredential"><rect codeLine="12" fill="#F1F1F1" height="73.1094" id="parkingServiceCredential" rx="2.5" ry="2.5" style="stroke:#181818;stroke-width:0.5;" width="204" x="890" y="775.19"/><ellipse cx="905" cy="795.5005" fill="#ADD1B2" rx="11" ry="11" style="stroke:#181818;stroke-width:1.0;"/><path d="M907.4731,801.6436 Q906.8921,801.9424 906.2529,802.0919 Q905.6138,802.2413 904.9082,802.2413 Q902.4014,802.2413 901.0815,800.5894 Q899.7617,798.9376 899.7617,795.8165 Q899.7617,792.6871 901.0815,791.0352 Q902.4014,789.3834 904.9082,789.3834 Q905.6138,789.3834 906.2612,789.5328 Q906.9087,789.6822 907.4731,789.981 L907.4731,792.7037 Q906.8423,792.1226 906.2488,791.8528 Q905.6553,791.5831 905.0244,791.5831 Q903.6797,791.5831 902.9949,792.6497 Q902.3101,793.7164 902.3101,795.8165 Q902.3101,797.9083 902.9949,798.9749 Q903.6797,800.0416 905.0244,800.0416 Q905.6553,800.0416 906.2488,799.7718 Q906.8423,799.502 907.4731,798.921 Z " fill="#000000"/><text fill="#000000" font-family="sans-serif" font-size="12" font-style="italic" lengthAdjust="spacing" textLength="88" x="961" y="791.7916">«PersonalData»</text><text fill="#000000" font-family="sans-serif" font-size="14" lengthAdjust="spacing" textLength="172" x="919" y="807.858">parkingServiceCredential</text><line style="stroke:#181818;stroke-width:0.5;" x1="891" x2="1093" y1="815.8111" y2="815.8111"/><text fill="#000000" font-family="sans-serif" font-size="14" lengthAdjust="spacing" textLength="119" x="896" y="833.3463">category: general</text><line style="stroke:#181818;stroke-width:0.5;" x1="891" x2="1093" y1="840.2994" y2="840.2994"/></g><!--class LegalGroundSpecialCategory--><g id="elem_LegalGroundSpecialCategory"><rect codeLine="16" fill="#FFFFFF" height="287.457" id="LegalGroundSpecialCategory" rx="2.5" ry="2.5" style="stroke:#A9A9A9;stroke-width:0.5;" width="235" x="613.5" y="974.69"/><ellipse cx="630.75" cy="995.0005" fill="#ADD1B2" rx="11" ry="11" style="stroke:#181818;stroke-width:1.0;"/><path d="M633.2231,1001.1436 Q632.6421,1001.4424 632.0029,1001.5919 Q631.3638,1001.7413 630.6582,1001.7413 Q628.1514,1001.7413 626.8315,1000.0894 Q625.5117,998.4376 625.5117,995.3165 Q625.5117,992.1871 626.8315,990.5352 Q628.1514,988.8834 630.6582,988.8834 Q631.3638,988.8834 632.0112,989.0328 Q632.6587,989.1822 633.2231,989.481 L633.2231,992.2037 Q632.5923,991.6226 631.9988,991.3528 Q631.4053,991.0831 630.7744,991.0831 Q629.4297,991.0831 628.7449,992.1497 Q628.0601,993.2164 628.0601,995.3165 Q628.0601,997.4083 628.7449,998.4749 Q629.4297,999.5416 630.7744,999.5416 Q631.4053,999.5416 631.9988,999.2718 Q632.5923,999.002 633.2231,998.421 Z " fill="#000000"/><text fill="#000000" font-family="sans-serif" font-size="12" font-style="italic" lengthAdjust="spacing" textLength="85" x="701.75" y="991.2916">«NotRequired»</text><text fill="#D3D3D3" font-family="sans-serif" font-size="14" lengthAdjust="spacing" textLength="198" x="645.25" y="1007.358">LegalGroundSpecialCategory</text><line style="stroke:#A9A9A9;stroke-width:0.5;" x1="614.5" x2="847.5" y1="1015.3111" y2="1015.3111"/><text fill="#D3D3D3" font-family="sans-serif" font-size="14" lengthAdjust="spacing" textLength="119" x="619.5" y="1032.8463">unspecified: false</text><text fill="#D3D3D3" font-family="sans-serif" font-size="14" lengthAdjust="spacing" textLength="94" x="619.5" y="1049.3345">consent: false</text><text fill="#D3D3D3" font-family="sans-serif" font-size="14" lengthAdjust="spacing" textLength="189" x="619.5" y="1065.8228">employment_purpose: false</text><text fill="#D3D3D3" font-family="sans-serif" font-size="14" lengthAdjust="spacing" textLength="143" x="619.5" y="1082.3111">social_purpose: false</text><text fill="#D3D3D3" font-family="sans-serif" font-size="14" lengthAdjust="spacing" textLength="127" x="619.5" y="1098.7994">vital_interest: false</text><text fill="#D3D3D3" font-family="sans-serif" font-size="14" lengthAdjust="spacing" textLength="146" x="619.5" y="1115.2877">nonprofit_body: false</text><text fill="#D3D3D3" font-family="sans-serif" font-size="14" lengthAdjust="spacing" textLength="178" x="619.5" y="1131.7759">public_from_subject: false</text><text fill="#D3D3D3" font-family="sans-serif" font-size="14" lengthAdjust="spacing" textLength="116" x="619.5" y="1148.2642">legal_claim: false</text><text fill="#D3D3D3" font-family="sans-serif" font-size="14" lengthAdjust="spacing" textLength="223" x="619.5" y="1164.7525">substantial_public_interest: false</text><text fill="#D3D3D3" font-family="sans-serif" font-size="14" lengthAdjust="spacing" textLength="180" x="619.5" y="1181.2408">preventive_medicine: false</text><text fill="#D3D3D3" font-family="sans-serif" font-size="14" lengthAdjust="spacing" textLength="197" x="619.5" y="1197.7291">occupational_medicine: false</text><text fill="#D3D3D3" font-family="sans-serif" font-size="14" lengthAdjust="spacing" textLength="132" x="619.5" y="1214.2173">public_health: false</text><text fill="#D3D3D3" font-family="sans-serif" font-size="14" lengthAdjust="spacing" textLength="103" x="619.5" y="1230.7056">archiving: false</text><text fill="#D3D3D3" font-family="sans-serif" font-size="14" lengthAdjust="spacing" textLength="175" x="619.5" y="1247.1939">statistical_purposes: false</text><line style="stroke:#A9A9A9;stroke-width:0.5;" x1="614.5" x2="847.5" y1="1254.147" y2="1254.147"/></g><!--class LegalGround--><g id="elem_LegalGround"><rect codeLine="32" fill="#F1F1F1" height="163.418" id="LegalGround" rx="2.5" ry="2.5" style="stroke:#181818;stroke-width:0.5;" width="236" x="884" y="1036.69"/><ellipse cx="953.75" cy="1052.69" fill="#ADD1B2" rx="11" ry="11" style="stroke:#181818;stroke-width:1.0;"/><path d="M956.2231,1058.8331 Q955.6421,1059.1319 955.0029,1059.2813 Q954.3638,1059.4307 953.6582,1059.4307 Q951.1514,1059.4307 949.8315,1057.7789 Q948.5117,1056.127 948.5117,1053.0059 Q948.5117,1049.8765 949.8315,1048.2247 Q951.1514,1046.5728 953.6582,1046.5728 Q954.3638,1046.5728 955.0112,1046.7222 Q955.6587,1046.8716 956.2231,1047.1705 L956.2231,1049.8931 Q955.5923,1049.3121 954.9988,1049.0423 Q954.4053,1048.7725 953.7744,1048.7725 Q952.4297,1048.7725 951.7449,1049.8392 Q951.0601,1050.9058 951.0601,1053.0059 Q951.0601,1055.0977 951.7449,1056.1644 Q952.4297,1057.231 953.7744,1057.231 Q954.4053,1057.231 954.9988,1056.9612 Q955.5923,1056.6915 956.2231,1056.1104 Z " fill="#000000"/><text fill="#000000" font-family="sans-serif" font-size="14" lengthAdjust="spacing" textLength="88" x="974.25" y="1057.981">LegalGround</text><line style="stroke:#181818;stroke-width:0.5;" x1="885" x2="1119" y1="1068.69" y2="1068.69"/><text fill="#000000" font-family="sans-serif" font-size="14" lengthAdjust="spacing" textLength="115" x="890" y="1086.2252">unspecified: true</text><text fill="#000000" font-family="sans-serif" font-size="14" lengthAdjust="spacing" textLength="94" x="890" y="1102.7134">consent: false</text><text fill="#000000" font-family="sans-serif" font-size="14" lengthAdjust="spacing" textLength="191" x="890" y="1119.2017">contract_performance: false</text><text fill="#000000" font-family="sans-serif" font-size="14" lengthAdjust="spacing" textLength="224" x="890" y="1135.69">controller_legal_obligation: false</text><text fill="#000000" font-family="sans-serif" font-size="14" lengthAdjust="spacing" textLength="205" x="890" y="1152.1783">vital_interest_protection: false</text><text fill="#000000" font-family="sans-serif" font-size="14" lengthAdjust="spacing" textLength="141" x="890" y="1168.6666">public_interest: false</text><text fill="#000000" font-family="sans-serif" font-size="14" lengthAdjust="spacing" textLength="167" x="890" y="1185.1548">legitimate_interest: false</text><line style="stroke:#181818;stroke-width:0.5;" x1="885" x2="1119" y1="1192.108" y2="1192.108"/></g><!--class Consent--><g id="elem_Consent"><rect codeLine="41" fill="#98FB98" height="172.0391" id="Consent" rx="2.5" ry="2.5" style="stroke:#FF0000;stroke-width:0.5;" width="138" x="440" y="1032.19"/><ellipse cx="461.75" cy="1052.5005" fill="#ADD1B2" rx="11" ry="11" style="stroke:#181818;stroke-width:1.0;"/><path d="M464.2231,1058.6436 Q463.6421,1058.9424 463.0029,1059.0919 Q462.3638,1059.2413 461.6582,1059.2413 Q459.1514,1059.2413 457.8315,1057.5894 Q456.5117,1055.9376 456.5117,1052.8165 Q456.5117,1049.6871 457.8315,1048.0352 Q459.1514,1046.3834 461.6582,1046.3834 Q462.3638,1046.3834 463.0112,1046.5328 Q463.6587,1046.6822 464.2231,1046.981 L464.2231,1049.7037 Q463.5923,1049.1226 462.9988,1048.8528 Q462.4053,1048.5831 461.7744,1048.5831 Q460.4297,1048.5831 459.7449,1049.6497 Q459.0601,1050.7164 459.0601,1052.8165 Q459.0601,1054.9083 459.7449,1055.9749 Q460.4297,1057.0416 461.7744,1057.0416 Q462.4053,1057.0416 462.9988,1056.7718 Q463.5923,1056.502 464.2231,1055.921 Z " fill="#000000"/><text fill="#000000" font-family="sans-serif" font-size="12" font-style="italic" lengthAdjust="spacing" textLength="95" x="475.25" y="1048.7916">«MissingArtifact»</text><text fill="#000000" font-family="sans-serif" font-size="14" lengthAdjust="spacing" textLength="57" x="494.25" y="1064.858">Consent</text><line style="stroke:#FF0000;stroke-width:0.5;" x1="441" x2="577" y1="1072.8111" y2="1072.8111"/><text fill="#000000" font-family="sans-serif" font-size="14" lengthAdjust="spacing" textLength="101" x="446" y="1090.3463">clear_purpose:</text><text fill="#000000" font-family="sans-serif" font-size="14" lengthAdjust="spacing" textLength="99" x="446" y="1106.8345">unambiguous:</text><text fill="#000000" font-family="sans-serif" font-size="14" lengthAdjust="spacing" textLength="126" x="446" y="1123.3228">affirmative_action:</text><text fill="#000000" font-family="sans-serif" font-size="14" lengthAdjust="spacing" textLength="109" x="446" y="1139.8111">distinguishable:</text><text fill="#000000" font-family="sans-serif" font-size="14" lengthAdjust="spacing" textLength="55" x="446" y="1156.2994">specific:</text><text fill="#000000" font-family="sans-serif" font-size="14" lengthAdjust="spacing" textLength="96" x="446" y="1172.7877">withdrawable:</text><text fill="#000000" font-family="sans-serif" font-size="14" lengthAdjust="spacing" textLength="86" x="446" y="1189.2759">freely_given:</text><line style="stroke:#FF0000;stroke-width:0.5;" x1="441" x2="577" y1="1196.2291" y2="1196.2291"/></g><!--class PrivacyPolicy--><g id="elem_PrivacyPolicy"><rect codeLine="50" fill="#98FB98" height="270.9688" id="PrivacyPolicy" rx="2.5" ry="2.5" style="stroke:#FF0000;stroke-width:0.5;" width="208" x="1155" y="982.69"/><ellipse cx="1209.25" cy="1003.0005" fill="#ADD1B2" rx="11" ry="11" style="stroke:#181818;stroke-width:1.0;"/><path d="M1211.7231,1009.1436 Q1211.1421,1009.4424 1210.5029,1009.5919 Q1209.8638,1009.7413 1209.1582,1009.7413 Q1206.6514,1009.7413 1205.3315,1008.0894 Q1204.0117,1006.4376 1204.0117,1003.3165 Q1204.0117,1000.1871 1205.3315,998.5352 Q1206.6514,996.8834 1209.1582,996.8834 Q1209.8638,996.8834 1210.5112,997.0328 Q1211.1587,997.1822 1211.7231,997.481 L1211.7231,1000.2037 Q1211.0923,999.6226 1210.4988,999.3528 Q1209.9053,999.0831 1209.2744,999.0831 Q1207.9297,999.0831 1207.2449,1000.1497 Q1206.5601,1001.2164 1206.5601,1003.3165 Q1206.5601,1005.4083 1207.2449,1006.4749 Q1207.9297,1007.5416 1209.2744,1007.5416 Q1209.9053,1007.5416 1210.4988,1007.2718 Q1211.0923,1007.002 1211.7231,1006.421 Z " fill="#000000"/><text fill="#000000" font-family="sans-serif" font-size="12" font-style="italic" lengthAdjust="spacing" textLength="95" x="1227.75" y="999.2916">«MissingArtifact»</text><text fill="#000000" font-family="sans-serif" font-size="14" lengthAdjust="spacing" textLength="86" x="1232.25" y="1015.358">PrivacyPolicy</text><line style="stroke:#FF0000;stroke-width:0.5;" x1="1156" x2="1362" y1="1023.3111" y2="1023.3111"/><text fill="#000000" font-family="sans-serif" font-size="14" lengthAdjust="spacing" textLength="158" x="1161" y="1040.8463">controller_contact_info</text><text fill="#000000" font-family="sans-serif" font-size="14" lengthAdjust="spacing" textLength="118" x="1161" y="1057.3345">dpo_contact_info</text><text fill="#000000" font-family="sans-serif" font-size="14" lengthAdjust="spacing" textLength="160" x="1161" y="1073.8228">purpose_of_processing</text><text fill="#000000" font-family="sans-serif" font-size="14" lengthAdjust="spacing" textLength="75" x="1161" y="1090.3111">legal_basis</text><text fill="#000000" font-family="sans-serif" font-size="14" lengthAdjust="spacing" textLength="104" x="1161" y="1106.7994">data_recipients</text><text fill="#000000" font-family="sans-serif" font-size="14" lengthAdjust="spacing" textLength="104" x="1161" y="1123.2877">storage_period</text><text fill="#000000" font-family="sans-serif" font-size="14" lengthAdjust="spacing" textLength="105" x="1161" y="1139.7759">right_to_access</text><text fill="#000000" font-family="sans-serif" font-size="14" lengthAdjust="spacing" textLength="103" x="1161" y="1156.2642">right_to_rectify</text><text fill="#000000" font-family="sans-serif" font-size="14" lengthAdjust="spacing" textLength="113" x="1161" y="1172.7525">right_to_erasure</text><text fill="#000000" font-family="sans-serif" font-size="14" lengthAdjust="spacing" textLength="131" x="1161" y="1189.2408">right_to_portability</text><text fill="#000000" font-family="sans-serif" font-size="14" lengthAdjust="spacing" textLength="185" x="1161" y="1205.7291">right_to_withdraw_consent</text><text fill="#000000" font-family="sans-serif" font-size="14" lengthAdjust="spacing" textLength="175" x="1161" y="1222.2173">right_to_lodge_complaint</text><text fill="#000000" font-family="sans-serif" font-size="14" lengthAdjust="spacing" textLength="196" x="1161" y="1238.7056">automated_decision_making</text><line style="stroke:#FF0000;stroke-width:0.5;" x1="1156" x2="1362" y1="1245.6588" y2="1245.6588"/></g><!--class FilingSystem--><g id="elem_FilingSystem"><rect codeLine="65" fill="#FFFFFF" height="89.5977" id="FilingSystem" rx="2.5" ry="2.5" style="stroke:#A9A9A9;stroke-width:0.5;" width="158" x="7" y="151.69"/><ellipse cx="40" cy="172.0005" fill="#ADD1B2" rx="11" ry="11" style="stroke:#181818;stroke-width:1.0;"/><path d="M42.4731,178.1436 Q41.8921,178.4424 41.2529,178.5919 Q40.6138,178.7413 39.9082,178.7413 Q37.4014,178.7413 36.0815,177.0894 Q34.7617,175.4376 34.7617,172.3165 Q34.7617,169.1871 36.0815,167.5352 Q37.4014,165.8834 39.9082,165.8834 Q40.6138,165.8834 41.2612,166.0328 Q41.9087,166.1822 42.4731,166.481 L42.4731,169.2037 Q41.8423,168.6226 41.2488,168.3528 Q40.6553,168.0831 40.0244,168.0831 Q38.6797,168.0831 37.9949,169.1497 Q37.3101,170.2164 37.3101,172.3165 Q37.3101,174.4083 37.9949,175.4749 Q38.6797,176.5416 40.0244,176.5416 Q40.6553,176.5416 41.2488,176.2718 Q41.8423,176.002 42.4731,175.421 Z " fill="#000000"/><text fill="#000000" font-family="sans-serif" font-size="12" font-style="italic" lengthAdjust="spacing" textLength="85" x="58.5" y="168.2916">«NotRequired»</text><text fill="#D3D3D3" font-family="sans-serif" font-size="14" lengthAdjust="spacing" textLength="86" x="58" y="184.358">FilingSystem</text><line style="stroke:#A9A9A9;stroke-width:0.5;" x1="8" x2="164" y1="192.3111" y2="192.3111"/><text fill="#D3D3D3" font-family="sans-serif" font-size="14" lengthAdjust="spacing" textLength="129" x="13" y="209.8463">data_storage: false</text><text fill="#D3D3D3" font-family="sans-serif" font-size="14" lengthAdjust="spacing" textLength="146" x="13" y="226.3345">storage_limited: false</text><line style="stroke:#A9A9A9;stroke-width:0.5;" x1="8" x2="164" y1="233.2877" y2="233.2877"/></g><!--class SecurityMeasures--><g id="elem_SecurityMeasures"><rect codeLine="69" fill="#F1F1F1" height="89.5977" id="SecurityMeasures" rx="2.5" ry="2.5" style="stroke:#FF0000;stroke-width:0.5;" width="151" x="200.5" y="151.69"/><ellipse cx="215.5" cy="172.0005" fill="#ADD1B2" rx="11" ry="11" style="stroke:#181818;stroke-width:1.0;"/><path d="M217.9731,178.1436 Q217.3921,178.4424 216.7529,178.5919 Q216.1138,178.7413 215.4082,178.7413 Q212.9014,178.7413 211.5815,177.0894 Q210.2617,175.4376 210.2617,172.3165 Q210.2617,169.1871 211.5815,167.5352 Q212.9014,165.8834 215.4082,165.8834 Q216.1138,165.8834 216.7612,166.0328 Q217.4087,166.1822 217.9731,166.481 L217.9731,169.2037 Q217.3423,168.6226 216.7488,168.3528 Q216.1553,168.0831 215.5244,168.0831 Q214.1797,168.0831 213.4949,169.1497 Q212.8101,170.2164 212.8101,172.3165 Q212.8101,174.4083 213.4949,175.4749 Q214.1797,176.5416 215.5244,176.5416 Q216.1553,176.5416 216.7488,176.2718 Q217.3423,176.002 217.9731,175.421 Z " fill="#000000"/><text fill="#000000" font-family="sans-serif" font-size="12" font-style="italic" lengthAdjust="spacing" textLength="84" x="247" y="168.2916">«MissingClass»</text><text fill="#000000" font-family="sans-serif" font-size="14" lengthAdjust="spacing" textLength="119" x="229.5" y="184.358">SecurityMeasures</text><line style="stroke:#FF0000;stroke-width:0.5;" x1="201.5" x2="350.5" y1="192.3111" y2="192.3111"/><text fill="#000000" font-family="sans-serif" font-size="14" lengthAdjust="spacing" textLength="92" x="206.5" y="209.8463">technologies:</text><text fill="#000000" font-family="sans-serif" font-size="14" lengthAdjust="spacing" textLength="103" x="206.5" y="226.3345">isms_standard:</text><line style="stroke:#FF0000;stroke-width:0.5;" x1="201.5" x2="350.5" y1="233.2877" y2="233.2877"/></g><!--class ProcessingSystem--><g id="elem_ProcessingSystem"><rect codeLine="73" fill="#F1F1F1" height="179.9063" id="ProcessingSystem" rx="2.5" ry="2.5" style="stroke:#181818;stroke-width:0.5;" width="154" x="199" y="318.69"/><ellipse cx="214" cy="334.69" fill="#ADD1B2" rx="11" ry="11" style="stroke:#181818;stroke-width:1.0;"/><path d="M216.4731,340.8331 Q215.8921,341.1319 215.2529,341.2813 Q214.6138,341.4307 213.9082,341.4307 Q211.4014,341.4307 210.0815,339.7789 Q208.7617,338.127 208.7617,335.0059 Q208.7617,331.8765 210.0815,330.2247 Q211.4014,328.5728 213.9082,328.5728 Q214.6138,328.5728 215.2612,328.7222 Q215.9087,328.8716 216.4731,329.1705 L216.4731,331.8931 Q215.8423,331.3121 215.2488,331.0423 Q214.6553,330.7725 214.0244,330.7725 Q212.6797,330.7725 211.9949,331.8392 Q211.3101,332.9058 211.3101,335.0059 Q211.3101,337.0977 211.9949,338.1644 Q212.6797,339.231 214.0244,339.231 Q214.6553,339.231 215.2488,338.9612 Q215.8423,338.6915 216.4731,338.1104 Z " fill="#000000"/><text fill="#000000" font-family="sans-serif" font-size="14" lengthAdjust="spacing" textLength="122" x="228" y="339.981">ProcessingSystem</text><line style="stroke:#181818;stroke-width:0.5;" x1="200" x2="352" y1="350.69" y2="350.69"/><text fill="#000000" font-family="sans-serif" font-size="14" lengthAdjust="spacing" textLength="101" x="205" y="368.2252">confidentiality:</text><text fill="#000000" font-family="sans-serif" font-size="14" lengthAdjust="spacing" textLength="61" x="205" y="384.7134">integrity:</text><text fill="#000000" font-family="sans-serif" font-size="14" lengthAdjust="spacing" textLength="76" x="205" y="401.2017">availability:</text><text fill="#000000" font-family="sans-serif" font-size="14" lengthAdjust="spacing" textLength="59" x="205" y="417.69">resilient:</text><text fill="#000000" font-family="sans-serif" font-size="14" lengthAdjust="spacing" textLength="97" x="205" y="434.1783">pseudonimity:</text><text fill="#000000" font-family="sans-serif" font-size="14" lengthAdjust="spacing" textLength="131" x="205" y="450.6666">data_minimization:</text><text fill="#000000" font-family="sans-serif" font-size="14" lengthAdjust="spacing" textLength="97" x="205" y="467.1548">redundancies:</text><text fill="#000000" font-family="sans-serif" font-size="14" lengthAdjust="spacing" textLength="46" x="205" y="483.6431">tested:</text><line style="stroke:#181818;stroke-width:0.5;" x1="200" x2="352" y1="490.5963" y2="490.5963"/></g><!--class Check_parking_service_credential--><g id="elem_Check_parking_service_credential"><rect codeLine="83" fill="#F1F1F1" height="73.1094" id="Check_parking_service_credential" rx="2.5" ry="2.5" style="stroke:#181818;stroke-width:0.5;" width="263" x="300.5" y="575.69"/><ellipse cx="315.5" cy="596.0005" fill="#ADD1B2" rx="11" ry="11" style="stroke:#181818;stroke-width:1.0;"/><path d="M317.9731,602.1436 Q317.3921,602.4424 316.7529,602.5919 Q316.1138,602.7413 315.4082,602.7413 Q312.9014,602.7413 311.5815,601.0894 Q310.2617,599.4376 310.2617,596.3165 Q310.2617,593.1871 311.5815,591.5352 Q312.9014,589.8834 315.4082,589.8834 Q316.1138,589.8834 316.7612,590.0328 Q317.4087,590.1822 317.9731,590.481 L317.9731,593.2037 Q317.3423,592.6226 316.7488,592.3528 Q316.1553,592.0831 315.5244,592.0831 Q314.1797,592.0831 313.4949,593.1497 Q312.8101,594.2164 312.8101,596.3165 Q312.8101,598.4083 313.4949,599.4749 Q314.1797,600.5416 315.5244,600.5416 Q316.1553,600.5416 316.7488,600.2718 Q317.3423,600.002 317.9731,599.421 Z " fill="#000000"/><text fill="#000000" font-family="sans-serif" font-size="12" font-style="italic" lengthAdjust="spacing" textLength="101" x="394.5" y="592.2916">«ProcessingTask»</text><text fill="#000000" font-family="sans-serif" font-size="14" lengthAdjust="spacing" textLength="231" x="329.5" y="608.358">Check_parking_service_credential</text><line style="stroke:#181818;stroke-width:0.5;" x1="301.5" x2="562.5" y1="616.3111" y2="616.3111"/><text fill="#000000" font-family="sans-serif" font-size="14" lengthAdjust="spacing" textLength="102" x="306.5" y="633.8463">recorded: false</text><line style="stroke:#181818;stroke-width:0.5;" x1="301.5" x2="562.5" y1="640.7994" y2="640.7994"/></g><!--class RecordOfProcessing--><g id="elem_RecordOfProcessing"><rect codeLine="86" fill="#98FB98" height="172.0391" id="RecordOfProcessing" rx="2.5" ry="2.5" style="stroke:#FF0000;stroke-width:0.5;" width="179" x="647.5" y="725.69"/><ellipse cx="666.55" cy="746.0005" fill="#ADD1B2" rx="11" ry="11" style="stroke:#181818;stroke-width:1.0;"/><path d="M669.0231,752.1436 Q668.4421,752.4424 667.8029,752.5919 Q667.1638,752.7413 666.4582,752.7413 Q663.9514,752.7413 662.6315,751.0894 Q661.3117,749.4376 661.3117,746.3165 Q661.3117,743.1871 662.6315,741.5352 Q663.9514,739.8834 666.4582,739.8834 Q667.1638,739.8834 667.8112,740.0328 Q668.4587,740.1822 669.0231,740.481 L669.0231,743.2037 Q668.3923,742.6226 667.7988,742.3528 Q667.2053,742.0831 666.5744,742.0831 Q665.2297,742.0831 664.5449,743.1497 Q663.8601,744.2164 663.8601,746.3165 Q663.8601,748.4083 664.5449,749.4749 Q665.2297,750.5416 666.5744,750.5416 Q667.2053,750.5416 667.7988,750.2718 Q668.3923,750.002 669.0231,749.421 Z " fill="#000000"/><text fill="#000000" font-family="sans-serif" font-size="12" font-style="italic" lengthAdjust="spacing" textLength="95" x="702.95" y="742.2916">«MissingArtifact»</text><text fill="#000000" font-family="sans-serif" font-size="14" lengthAdjust="spacing" textLength="138" x="681.45" y="758.358">RecordOfProcessing</text><line style="stroke:#FF0000;stroke-width:0.5;" x1="648.5" x2="825.5" y1="766.3111" y2="766.3111"/><text fill="#000000" font-family="sans-serif" font-size="14" lengthAdjust="spacing" textLength="42" x="653.5" y="783.8463">name:</text><text fill="#000000" font-family="sans-serif" font-size="14" lengthAdjust="spacing" textLength="61" x="653.5" y="800.3345">purpose:</text><text fill="#000000" font-family="sans-serif" font-size="14" lengthAdjust="spacing" textLength="106" x="653.5" y="816.8228">contact_details:</text><text fill="#000000" font-family="sans-serif" font-size="14" lengthAdjust="spacing" textLength="167" x="653.5" y="833.3111">personal_data_category:</text><text fill="#000000" font-family="sans-serif" font-size="14" lengthAdjust="spacing" textLength="145" x="653.5" y="849.7994">data_storage_period:</text><text fill="#000000" font-family="sans-serif" font-size="14" lengthAdjust="spacing" textLength="130" x="653.5" y="866.2877">security_measures:</text><text fill="#000000" font-family="sans-serif" font-size="14" lengthAdjust="spacing" textLength="71" x="653.5" y="882.7759">recipients:</text><line style="stroke:#FF0000;stroke-width:0.5;" x1="648.5" x2="825.5" y1="889.7291" y2="889.7291"/></g><!--class DataHandler--><g id="elem_DataHandler"><rect fill="#F1F1F1" height="48" id="DataHandler" rx="2.5" ry="2.5" style="stroke:#181818;stroke-width:0.5;" width="117" x="929.5" y="588.19"/><ellipse cx="944.5" cy="604.19" fill="#ADD1B2" rx="11" ry="11" style="stroke:#181818;stroke-width:1.0;"/><path d="M946.9731,610.3331 Q946.3921,610.6319 945.7529,610.7813 Q945.1138,610.9307 944.4082,610.9307 Q941.9014,610.9307 940.5815,609.2789 Q939.2617,607.627 939.2617,604.5059 Q939.2617,601.3765 940.5815,599.7247 Q941.9014,598.0728 944.4082,598.0728 Q945.1138,598.0728 945.7612,598.2222 Q946.4087,598.3716 946.9731,598.6705 L946.9731,601.3931 Q946.3423,600.8121 945.7488,600.5423 Q945.1553,600.2725 944.5244,600.2725 Q943.1797,600.2725 942.4949,601.3392 Q941.8101,602.4058 941.8101,604.5059 Q941.8101,606.5977 942.4949,607.6644 Q943.1797,608.731 944.5244,608.731 Q945.1553,608.731 945.7488,608.4612 Q946.3423,608.1915 946.9731,607.6104 Z " fill="#000000"/><text fill="#000000" font-family="sans-serif" font-size="14" lengthAdjust="spacing" textLength="85" x="958.5" y="609.481">DataHandler</text><line style="stroke:#181818;stroke-width:0.5;" x1="930.5" x2="1045.5" y1="620.19" y2="620.19"/><line style="stroke:#181818;stroke-width:0.5;" x1="930.5" x2="1045.5" y1="628.19" y2="628.19"/></g><g id="elem_GMN34"><path d="M414.5,799.19 L414.5,824.5005 A0,0 0 0 0 414.5,824.5005 L505,824.5005 L509,1031.71 L513,824.5005 L603.5,824.5005 A0,0 0 0 0 603.5,824.5005 L603.5,809.19 L593.5,799.19 L414.5,799.19 A0,0 0 0 0 414.5,799.19 " fill="#FA8072" style="stroke:#181818;stroke-width:0.5;"/><path d="M593.5,799.19 L593.5,809.19 L603.5,809.19 L593.5,799.19 " fill="#FA8072" style="stroke:#181818;stroke-width:0.5;"/><text fill="#000000" font-family="sans-serif" font-size="13" lengthAdjust="spacing" textLength="168" x="420.5" y="816.7584">Consent is missing [Art. 7]</text></g><g id="elem_GMN37"><path d="M1133.5,799.19 L1133.5,824.5005 A0,0 0 0 0 1133.5,824.5005 L1255,824.5005 L1259,982.29 L1263,824.5005 L1384.5,824.5005 A0,0 0 0 0 1384.5,824.5005 L1384.5,809.19 L1374.5,799.19 L1133.5,799.19 A0,0 0 0 0 1133.5,799.19 " fill="#FA8072" style="stroke:#181818;stroke-width:0.5;"/><path d="M1374.5,799.19 L1374.5,809.19 L1384.5,809.19 L1374.5,799.19 " fill="#FA8072" style="stroke:#181818;stroke-width:0.5;"/><text fill="#000000" font-family="sans-serif" font-size="13" lengthAdjust="spacing" textLength="230" x="1139.5" y="816.7584">Privacy policy is missing [Art. 13,14]</text></g><g id="elem_GMN40"><path d="M144.5,65.69 L144.5,91.0005 A0,0 0 0 0 144.5,91.0005 L272,91.0005 L276,151.36 L280,91.0005 L407.5,91.0005 A0,0 0 0 0 407.5,91.0005 L407.5,75.69 L397.5,65.69 L144.5,65.69 A0,0 0 0 0 144.5,65.69 " fill="#FA8072" style="stroke:#181818;stroke-width:0.5;"/><path d="M397.5,65.69 L397.5,75.69 L407.5,75.69 L397.5,65.69 " fill="#FA8072" style="stroke:#181818;stroke-width:0.5;"/><text fill="#000000" font-family="sans-serif" font-size="13" lengthAdjust="spacing" textLength="242" x="150.5" y="83.2584">No security measures present [Art. 25]</text></g><g id="elem_GMN43"><path d="M387,184.19 L387,209.5005 L725,209.5005 L725,194.19 L715,184.19 L387,184.19 " fill="#FA8072" style="stroke:#181818;stroke-width:0.5;"/><path d="M715,184.19 L715,194.19 L725,194.19 L715,184.19 " fill="#FA8072" style="stroke:#181818;stroke-width:1.0;"/><text fill="#000000" font-family="sans-serif" font-size="13" lengthAdjust="spacing" textLength="317" x="393" y="201.7584">Processing system has missing attributes [Art. 32]</text></g><g id="elem_GMN46"><path d="M388.5,396.19 L388.5,421.5005 A0,0 0 0 0 388.5,421.5005 L534.44,421.5005 L452.05,575.44 L542.44,421.5005 L701.5,421.5005 A0,0 0 0 0 701.5,421.5005 L701.5,406.19 L691.5,396.19 L388.5,396.19 A0,0 0 0 0 388.5,396.19 " fill="#FA8072" style="stroke:#181818;stroke-width:0.5;"/><path d="M691.5,396.19 L691.5,406.19 L701.5,406.19 L691.5,396.19 " fill="#FA8072" style="stroke:#181818;stroke-width:0.5;"/><text fill="#000000" font-family="sans-serif" font-size="13" lengthAdjust="spacing" textLength="292" x="394.5" y="413.7584">Processing task is not being recorded [Art. 30]</text></g><g id="elem_GMN49"><path d="M599,599.69 L599,625.0005 A0,0 0 0 0 599,625.0005 L733.94,625.0005 L737.43,725.51 L741.94,625.0005 L877,625.0005 A0,0 0 0 0 877,625.0005 L877,609.69 L867,599.69 L599,599.69 A0,0 0 0 0 599,599.69 " fill="#FA8072" style="stroke:#181818;stroke-width:0.5;"/><path d="M867,599.69 L867,609.69 L877,609.69 L867,599.69 " fill="#FA8072" style="stroke:#181818;stroke-width:0.5;"/><text fill="#000000" font-family="sans-serif" font-size="13" lengthAdjust="spacing" textLength="257" x="605" y="617.2584">Record of processing is missing [Art. 30]</text></g><!--link parkingServiceCredential to Consent--><g id="link_parkingServiceCredential_Consent"><path codeLine="95" d="M936.24,848.61 C909.14,865.05 875.64,883.89 844,897.69 C738.21,943.82 687.04,903.76 596,974.69 C576.45,989.92 560.25,1010.87 547.35,1032.03 " fill="none" id="parkingServiceCredential-Consent" style="stroke:#181818;stroke-width:1.0;"/><polygon fill="#000000" points="705.4778,938.4782,714.9123,937.2778,712.4049,931.9616,705.4778,938.4782" style="stroke:#000000;stroke-width:1.0;"/><text fill="#000000" font-family="sans-serif" font-size="13" lengthAdjust="spacing" textLength="62" x="719" y="941.2584">manifests</text></g><!--link parkingServiceCredential to PrivacyPolicy--><g id="link_parkingServiceCredential_PrivacyPolicy"><path codeLine="96" d="M1024.78,848.45 C1054.57,881.1 1099.61,930.81 1138,974.69 C1143.45,980.92 1149.01,987.32 1154.62,993.8 " fill="none" id="parkingServiceCredential-PrivacyPolicy" style="stroke:#181818;stroke-width:1.0;"/><polygon fill="#000000" points="1118.331,940.0742,1114.497,931.3706,1110.1134,935.2864,1118.331,940.0742" style="stroke:#000000;stroke-width:1.0;"/><text fill="#000000" font-family="sans-serif" font-size="13" lengthAdjust="spacing" textLength="62" x="1124" y="941.2584">manifests</text></g><!--link AV to parkingServiceCredential--><g id="link_AV_parkingServiceCredential"><path codeLine="97" d="M1115.67,641.07 C1090.09,676.16 1046.11,736.48 1018.07,774.93 " fill="none" id="AV-parkingServiceCredential" style="stroke:#181818;stroke-width:1.0;"/><polygon fill="#000000" points="1087.0543,691.3854,1094.7579,685.8082,1090.0084,682.3453,1087.0543,691.3854" style="stroke:#000000;stroke-width:1.0;"/><text fill="#000000" font-family="sans-serif" font-size="13" lengthAdjust="spacing" textLength="54" x="1099" y="692.2584">provides</text></g><!--link PSP to ProcessingSystem--><g id="link_PSP_ProcessingSystem"><path codeLine="98" d="M1029.62,204.32 C879.86,225.09 430.35,289.2 371,318.69 C365.03,321.66 359.17,325.12 353.48,328.93 " fill="none" id="PSP-ProcessingSystem" style="stroke:#181818;stroke-width:1.0;"/><polygon fill="#000000" points="573.0828,281.2515,582.5108,282.5024,581.4454,276.7219,573.0828,281.2515" style="stroke:#000000;stroke-width:1.0;"/><text fill="#000000" font-family="sans-serif" font-size="13" lengthAdjust="spacing" textLength="74" x="587" y="285.2584">implements</text></g><!--link PSP to PLT--><g id="link_PSP_PLT"><path codeLine="99" d="M1076.61,225.44 C1075.98,239.33 1075.31,256.39 1075,271.69 C1074.24,309.14 1076.72,352.35 1078.72,379.83 " fill="none" id="PSP-PLT" style="stroke:#181818;stroke-width:1.0;"/><polygon fill="#000000" points="1080.0683,285.3448,1082.8834,276.2604,1077.0061,276.3407,1080.0683,285.3448" style="stroke:#000000;stroke-width:1.0;"/><text fill="#000000" font-family="sans-serif" font-size="13" lengthAdjust="spacing" textLength="66" x="1089" y="285.2584">authorizes</text></g><!--link Check_parking_service_credential to RecordOfProcessing--><g id="link_Check_parking_service_credential_RecordOfProcessing"><path codeLine="100" d="M495.5,648.96 C532.62,670.37 580.08,698.61 621,725.69 C629.54,731.34 638.31,737.36 647.04,743.49 " fill="none" id="Check_parking_service_credential-RecordOfProcessing" style="stroke:#181818;stroke-width:1.0;"/><polygon fill="#000000" points="579.2423,689.9916,573.1234,682.7108,570.0125,687.6979,579.2423,689.9916" style="stroke:#000000;stroke-width:1.0;"/><text fill="#000000" font-family="sans-serif" font-size="13" lengthAdjust="spacing" textLength="62" x="584" y="692.2584">manifests</text></g><!--link parkingServiceCredential to LegalGroundSpecialCategory--><g id="link_parkingServiceCredential_LegalGroundSpecialCategory"><path codeLine="101" d="M961.29,848.52 C933.33,881.14 890.21,931.45 848.81,979.75 " fill="none" id="parkingServiceCredential-LegalGroundSpecialCategory" style="stroke:#181818;stroke-width:1.0;"/><polygon fill="#000000" points="893.7461,940.1416,901.8639,935.1866,897.401,931.3614,893.7461,940.1416" style="stroke:#000000;stroke-width:1.0;"/><text fill="#000000" font-family="sans-serif" font-size="13" lengthAdjust="spacing" textLength="51" x="906" y="941.2584">requires</text></g><!--link parkingServiceCredential to LegalGround--><g id="link_parkingServiceCredential_LegalGround"><path codeLine="102" d="M993.18,848.52 C994.68,894.42 997.34,975.35 999.35,1036.43 " fill="none" id="parkingServiceCredential-LegalGround" style="stroke:#181818;stroke-width:1.0;"/><polygon fill="#000000" points="1001.1641,941.3426,1003.8046,932.2059,997.9299,932.3988,1001.1641,941.3426" style="stroke:#000000;stroke-width:1.0;"/><text fill="#000000" font-family="sans-serif" font-size="13" lengthAdjust="spacing" textLength="51" x="1010" y="941.2584">requires</text></g><!--link PSP to DataHandler--><g id="link_PSP_DataHandler"><path codeLine="103" d="M1121.39,225.35 C1136.56,237.54 1151.82,253.29 1160,271.69 C1183.62,324.83 1421.57,6 1147,498.69 C1135.28,519.73 1087.37,552.18 1047.18,576.84 " fill="none" id="PSP-to-DataHandler" style="stroke:#181818;stroke-width:1.0;"/><polygon fill="none" points="1050.88,582.78,1030.14,587.11,1043.66,570.79,1050.88,582.78" style="stroke:#181818;stroke-width:1.0;"/></g><!--link PLT to DataHandler--><g id="link_PLT_DataHandler"><path codeLine="104" d="M1068.26,437.29 C1052.62,471.18 1025.91,529.05 1007.63,568.65 " fill="none" id="PLT-to-DataHandler" style="stroke:#181818;stroke-width:1.0;"/><polygon fill="none" points="1014.08,571.39,999.34,586.61,1001.37,565.52,1014.08,571.39" style="stroke:#181818;stroke-width:1.0;"/></g><!--link Recipient to DataHandler--><g id="link_Recipient_DataHandler"><path codeLine="105" d="M814.47,437.34 C828.8,455.31 848.36,478.98 867,498.69 C891.75,524.85 921.32,552.4 945.03,573.69 " fill="none" id="Recipient-to-DataHandler" style="stroke:#181818;stroke-width:1.0;"/><polygon fill="none" points="949.68,568.46,959.98,586.98,940.38,578.92,949.68,568.46" style="stroke:#181818;stroke-width:1.0;"/></g><!--link ThirdParty to DataHandler--><g id="link_ThirdParty_DataHandler"><path codeLine="106" d="M947.44,437.29 C955.25,470.79 968.53,527.72 977.76,567.27 " fill="none" id="ThirdParty-to-DataHandler" style="stroke:#181818;stroke-width:1.0;"/><polygon fill="none" points="984.52,565.44,982.24,586.51,970.88,568.62,984.52,565.44" style="stroke:#181818;stroke-width:1.0;"/></g><!--link DataHandler to parkingServiceCredential--><g id="link_DataHandler_parkingServiceCredential"><path codeLine="107" d="M988.47,636.62 C989.17,670.85 990.46,734.81 991.28,774.94 " fill="none" id="DataHandler-parkingServiceCredential" style="stroke:#181818;stroke-width:1.0;"/><polygon fill="#000000" points="994.1016,692.3442,996.8562,683.2413,990.9795,683.3607,994.1016,692.3442" style="stroke:#000000;stroke-width:1.0;"/><text fill="#000000" font-family="sans-serif" font-size="13" lengthAdjust="spacing" textLength="51" x="1003" y="692.2584">receives</text></g><!--link ProcessingSystem to Check_parking_service_credential--><g id="link_ProcessingSystem_Check_parking_service_credential"><path codeLine="108" d="M345.11,498.95 C365.97,525.9 387.69,553.96 404.2,575.28 " fill="none" id="ProcessingSystem-Check_parking_service_credential" style="stroke:#181818;stroke-width:1.0;"/><polygon fill="#000000" points="386.0607,541.299,382.8478,532.3476,378.1999,535.9457,386.0607,541.299" style="stroke:#000000;stroke-width:1.0;"/><text fill="#000000" font-family="sans-serif" font-size="13" lengthAdjust="spacing" textLength="57" x="392" y="542.2584">performs</text></g><!--link FilingSystem to ProcessingSystem--><g id="link_FilingSystem_ProcessingSystem"><path codeLine="109" d="M126.06,241.97 C143.22,260.94 164.03,283.93 184.61,306.68 " fill="none" id="FilingSystem-to-ProcessingSystem" style="stroke:#181818;stroke-width:1.0;"/><polygon fill="none" points="189.53,301.68,197.76,321.21,179.15,311.08,189.53,301.68" style="stroke:#181818;stroke-width:1.0;"/></g><!--link SecurityMeasures to ProcessingSystem--><g id="link_SecurityMeasures_ProcessingSystem"><path codeLine="110" d="M276,241.97 C276,264.23 276,292.04 276,318.48 " fill="none" id="SecurityMeasures-ProcessingSystem" style="stroke:#181818;stroke-width:1.0;"/><polygon fill="#000000" points="281,285.3453,283.9389,276.3002,278.0611,276.3002,281,285.3453" style="stroke:#000000;stroke-width:1.0;"/><text fill="#000000" font-family="sans-serif" font-size="13" lengthAdjust="spacing" textLength="48" x="290" y="285.2584">secures</text></g><!--link GMN43 to ProcessingSystem--><g id="link_GMN43_ProcessingSystem"><path d="M535.22,209.66 C500.13,230.22 427.43,274.35 371,318.69 C365.14,323.3 359.2,328.2 353.32,333.24 " fill="none" id="GMN43-ProcessingSystem" style="stroke:#181818;stroke-width:1.0;stroke-dasharray:7.0,7.0;"/></g><!--SRC=[bLPHZzis37u-_me1Urs7jTqm83WSS4lHsyEr2ow7xM4e34McRUvaovFa5EdM_pvIaftOJkwsjuIaFf4VoKzMMZedDjkDkBvUczPRepNOcnlnjyZ4rqm5z-rlv7qdlTpskpz1-PbxS_z8_eqr2fmpyyCFeB13Q3t5V3J-0VxgqK8nYtgiqHORQVtXsR1EsYTigotOFIfOKm01ezHyFrXdMgavptGgkxfIqaDbx64bAcZ1IfqDKFTGINrdJTyMsuvob7gTOfSPP5TzwpYeH2XMefJQGNQbJEle-l4_D9qsXuPCUTVRpZWONSxm1Glp7ZrPiVLWmHs1MjDsrfJeyvqf3gEvwtSQLLvQq-GkTcBqQQucfygmELxQxvoNWPyydLrSrLdOCuLxo1ieK65xpCuerNVI8xEwz2R46gJszMYLLjMufnOTi_04uJogO_rkT9vf1hCjn8HlRtjWuvpmOF5MAY8SR6bi8ri5StUOw3mIP2ZdAfHq4ZNjGaxKUw9s6dE9Fo4863qsD3jBxr3UEYPEW_K1dIDsRgt7KiPDeYcbJ3L8UvoFOEjRsUomwatlaaMM9LAHeLqofHWS1JFSLZswMkxq090eLEdlP_HrOUNdauZI0kX3NX5WX1ftsk9UgiF6KDM7YtbVdH3CFxaJs9Q6NKLd5hPKNsvAPfdbWZ3P4RkpamvTE4ixdDj1E8B9UMDb1TneD0LRB5QrpxqX9XXfOhBSmF8miT7skzx2nDOPw-KEDVffx41LdaPkujIce4IKeNMN67sozuP7eCWBojfHO_96FiNY1ahVqpKaNGVdeJaZCKAakbEbmn2nVIXUOuF-H846w2setb8D7o2Kw8uDMxD_nAUvhbkZJOMqWy62hd4vgqGXRR7AJle_j2SbJ7fAN9IO19SkMsKyxvKDF-LUeavChZ9AWNxngcQTWxumBITEZb1WW_ptIrn3YYrewsbnGqwUreSA75LwNODwofFivoxgVgucmZ-c-YZTKvfC6W1ZYpDKFGJ7h-NnrCNfflMBUpAiPHO7dYUw04y5EpPrwU79Gt7ZWvDDsva6byqkTOiqDRPh5HDEqnwwSF6XU_LgL9EL8Bt3aXXpukRP4zDjdfwZnvqYBfvU2ThKFRMTO_ax8S3DXcCba9O1-Eax3QFlWfMWrQYDnIy1uCLsqh4p7VhlbJxpgg-4ZVlsFp2cXs9T_zm8_iRuXNQ6T2_ZAXV6uqVFmdNofRFmdVn-eIaqBa2Y7RAQTuD7v2MUgQtnnMI4YJA5fEQOsK9Xpez16EsGbQERwNxPYBXtB40_I_LK1LxN94Bs-lfauJPImnszHYt7yUhQPSositJP64LeTwTeKqNzlIQfd8DDGzuHFtTM7YZgrdkBkzx3Urhmiy7tBFyfUe8vKze7ACwLkfIOYnKlGndpQvQ9bhvCX3UTCEMe0jyugHl-41WCw4GJ4SGVXF6T-EdJxEXK3aQ0P1PTj2zmNh_zzlKFSwp5O8nm7uqOb4uCIaTY0Y79YFZcnqzYaTjig4xI6_N0HLSjZodAeO4kORzzCq_rnQKuTvMdDuMf822n0xOCJyjmp_UB6iues0WTVHnr_09QKisW_m80]--></g></svg>